<?xml version="1.0" encoding="UTF-8"?>
<svg id="Layer_1" xmlns="http://www.w3.org/2000/svg" version="1.1" viewBox="0 0 24 24">
  <!-- Generator: Adobe Illustrator 29.5.0, SVG Export Plug-In . SVG Version: 2.1.0 Build 137)  -->
  <defs>
    <style>
      .st0 {
        fill: #fff;
      }
    </style>
  </defs>
  <path class="st0" d="M11.97,0c-.68,0-1.36.03-2.04.09-1.43.12-2.85.35-4.25.69-1.01.26-2.01.58-2.97.97l-.06.02s.12,7.24.21,10.83c.02,1.06.22,2.1.57,3.1.41,1.13.95,2.21,1.62,3.21.7,1.03,1.55,1.96,2.51,2.75.38.32.78.61,1.19.87.65.39,1.33.74,2.04,1.03.23.1.44.19.62.25.19.07.39.13.59.18.2-.05.4-.11.59-.18.18-.06.39-.16.62-.25.7-.29,1.38-.64,2.04-1.03.42-.26.82-.56,1.19-.87.97-.79,1.81-1.72,2.51-2.75.67-1,1.21-2.08,1.62-3.21.35-1,.55-2.04.57-3.1.09-3.59.21-10.83.21-10.83-.02,0-.04-.02-.06-.03-.97-.39-1.96-.71-2.98-.97-1.4-.34-2.82-.57-4.25-.68-.68-.06-1.36-.09-2.04-.09h-.06ZM11.97.36h.06c.68,0,1.29.03,1.96.09,1.38.11,2.74.34,4.08.66.97.25,1.93.56,2.86.94.02,0,.04.02.06.03l-.04,2.27s-.01,0-.02-.01c-.93-.38-1.89-.69-2.86-.94-1.34-.33-2.71-.55-4.09-.66-.68-.06-1.28-.1-1.96-.11h-.06c-.68,0-1.29.05-1.97.11-1.38.12-2.74.34-4.08.66-.97.25-1.93.56-2.86.94,0,0-.01,0-.02.01l-.04-2.28.06-.02c.93-.38,1.89-.69,2.86-.94,1.34-.33,2.71-.55,4.09-.66.68-.06,1.28-.08,1.96-.09h0ZM12.26.58c-.3,0-.6,0-.9,0-.12,0-.29.11-.29.23v.65c0,.13.16.24.3.24.46,0,.87,0,1.32.03.03,0,.06.02.06.06v.13s-.02.04-.04.05c0,0,0,0,0,0-.52,0-1.07-.02-1.59.02-.03,0-.03,0-.03.02l-.02.38v.03c.62-.04,1.25-.04,1.88,0,.15,0,.28-.11.31-.26v-.63c0-.13-.15-.22-.26-.23-.44-.03-.94-.01-1.39-.02-.03,0-.05-.02-.04-.05,0,0,0,0,0,0v-.14s.03-.04.06-.04c.44-.02,1.11,0,1.56.02.03,0,.06-.04.06-.07v-.32s-.03-.07-.06-.07h0c-.3-.01-.6-.02-.9-.03ZM10.38.64c-.42,0-1.34.12-1.86.19v1.81s0,.02,0,.02l.47-.06s0,0,.01,0c0,0,0,0,0,0v-.52l.95-.1c.08-.01.18.05.26.17.06.1.1.22.11.34l.47-.04s.03,0,.03,0c-.01-.25-.12-.49-.31-.66.13-.05.2-.18.2-.31,0-.19,0-.38-.02-.56-.03-.14-.16-.24-.3-.25h0ZM13.97.66c-.2,0-.38.13-.41.33v1.2c0,.14.09.26.23.29.61.06,1.21.11,1.89.21.01,0,.03,0,.03-.02v-.42s-.02-.03-.03-.03c-.45-.06-1.05-.14-1.59-.19-.03,0-.06-.04-.06-.07v-.81s.05-.05.08-.05c.53.04,1.06.14,1.58.2.01,0,.04,0,.04-.02v-.38s0-.03-.02-.03c-.58-.08-1.17-.15-1.75-.2h0ZM15.95.9s-.02.01-.02.02c0,.27-.05,1.46-.05,1.77v.03c.16.03.33.05.45.07.01,0,.03,0,.03-.02,0-.21,0-.45,0-.64,0-.01,0-.01.02-.01.37.07.74.14,1.1.22,0,0,.05,0,.05.03,0,.22,0,.4-.01.62,0,.02.01.03.03.04.15.03.28.07.42.1.04,0,.04,0,.04-.01.02-.45.03-1.17.04-1.78,0,0,0-.02-.01-.02-.15-.03-.3-.07-.45-.11-.01,0-.02.02-.02.03-.01.22,0,.43-.03.65,0,0,0,.01,0,0-.37-.08-.76-.16-1.13-.23-.01,0,0-.02,0-.03v-.65s0-.03-.02-.03c-.14-.02-.28-.05-.42-.07h0ZM7.93.92s-.02,0-.04,0c-.54.09-1.09.2-1.64.32-.09.03-.17.08-.23.14-.06.05-.09.13-.1.21v1.12c0,.1.05.19.11.27.04.07.12.11.2.11.54-.12,1.09-.23,1.63-.32.1-.02.2-.08.27-.17.06-.06.09-.14.1-.23v-1.16c0-.08-.05-.15-.11-.2-.05-.05-.12-.08-.19-.08h0ZM10.09,1.12s.08.03.08.07v.19c0,.08-.06.15-.14.17l-1.06.1h0v-.41h0s1.11-.11,1.11-.11c0,0,0,0,0,0h0ZM7.57,1.41s.05,0,.08.02c.04.02.06.06.05.11v.7s-.03.08-.06.11c-.04.02-.08.04-.12.05-.33.07-.66.13-1,.19-.03,0-.06,0-.09-.02-.02-.03-.03-.06-.03-.1v-.73s.01-.07.04-.1c.03-.03.08-.05.12-.06.29-.05.67-.13.97-.17.01,0,.02,0,.03,0ZM18.38,1.41h0s0,.01,0,.02c-.01.61-.03,1.17-.03,1.77,0,.01,0,.03.02.03.73.2,1.45.43,2.16.7.03.01.03-.01.03-.02,0-.14.01-.28,0-.42,0-.01-.01-.03-.02-.03-.54-.21-1.1-.39-1.66-.54-.01,0-.02-.01-.02-.03v-.18s.02,0,.03,0c.56.16,1.12.34,1.67.54.01,0,.01,0,.01-.02,0-.16,0-.31,0-.47,0-.01,0-.02-.02-.03-.54-.2-1.09-.37-1.64-.52,0,0-.02,0-.02-.02v-.19s.01-.01.02,0c.56.14,1.18.36,1.61.52.04.01.06,0,.06-.03,0-.16,0-.17,0-.32,0-.02,0-.04-.02-.05-.71-.27-1.43-.51-2.17-.71h0ZM5.41,1.47s-.06,0-.08,0c-.65.17-1.3.41-1.96.65-.02.01-.03.03-.03.05v1.8s.47-.18.58-.21c.01,0,.01-.02.01-.03v-.52s0-.04,0-.04l1.62-.5c.05-.02.1-.05.14-.1.04-.04.05-.1.05-.16l-.02-.68c0-.08-.05-.15-.12-.2-.06-.04-.13-.07-.2-.07h0ZM5.12,1.97s.07.03.07.06c0,.08.01.17.01.25,0,.05-.07.1-.11.11l-1.18.39s-.03,0-.03-.01v-.36s.02-.03.04-.04c.39-.16.79-.29,1.2-.4ZM12.09,2.95c.65,0,1.25.03,1.9.09,1.38.11,2.74.34,4.08.66.97.25,1.93.56,2.86.94,0,0,0,0,.01,0,0,.15,0,.3,0,.45h-8.85v-2.14ZM11.77,2.95v4.62h-2.95s-.02-.02.02-.05c.21-.16.46-.26.72-.31.02,0,.03-.01,0-.05-.24-.24-.6-.33-.93-.21-.29.09-.52.32-.62.6,0,.02-.02.03-.04.03-.16,0-.31.01-.47.01-.03,0-.04-.03-.03-.06.04-.2.17-.38.34-.48.16-.1.33-.16.52-.18.02,0,.03-.03.03-.05,0,0,0,0,0-.01-.03-.04-.07-.07-.1-.09-.15-.08-.33-.11-.5-.08-.51.05-.91.46-.95.96-.01.06,0,.07-.05.09-.11.04-.32.06-.43.09-.02,0-.05-.04-.05-.06.04-.19.12-.37.24-.52.09-.12.21-.22.34-.29.03-.01.05-.04.03-.06-.25-.22-.77.01-.98.24-.2.26-.29.58-.28.91,0,.02.01.04,0,.05-.13.06-.26.11-.4.15-.01,0-.01-.03-.02-.04-.04-.24.01-.48.15-.68.06-.1.14-.18.24-.24.01,0,0-.02,0-.03-.11-.15-.57-.04-.71.09-.32.31-.3.61-.31,1.1,0,.02-.03.11-.06.12-.06.03-.12.06-.18.07-.02,0-.02.01-.03,0-.06-.21-.28-.32-.49-.26-.03,0-.06.02-.08.04-.17.11-.21.33-.11.49,0,.01.02.03.03.04.02.02.02.03,0,.04-.22.07-.35.3-.28.52,0,0,0,0,0,0,.05.12.16.2.3.21.13,0,.26-.03.37-.11.02-.01.05,0,.06,0h0c.11.18.35.24.53.12.16-.11.23-.27.11-.56,0-.02.02-.05.03-.05.96-.55,2.04-.85,3.14-.88.16.01.31.05.46.1,0,0,.02,0,.02,0v.94s-.02.02-.03.02c-.21.13-.36.32-.43.55,0,.02,0,.02-.03.02-.19.02-.4.05-.59.06-.01,0-.03-.02-.03-.03.14-.37.39-.69.72-.91.02-.02.02-.04.01-.07-.05-.05-.1-.08-.17-.09-.34-.03-.67.11-.89.36-.2.25-.31.56-.31.88,0,.02,0,.06-.02.06-.12.04-.26.07-.39.11-.01,0-.03-.01-.04-.03-.07-.41.13-.82.49-1.03.05-.04-.04-.1-.1-.1-.38-.02-.74.19-.91.53-.09.25-.1.53-.03.79,0,.02.02.06,0,.07-.08.02-.26.09-.32.11-.02,0-.03,0-.05-.03-.05-.16-.05-.33-.02-.49.05-.18.14-.35.27-.49,0-.01.01-.03,0-.04-.12-.05-.25-.06-.38-.02-.21.05-.38.19-.48.38-.16.3-.12.58.05,1.01,0,.02.02.06,0,.07l-.14.08s-.03,0-.04-.02c-.05-.08-.12-.2-.21-.24-.14-.07-.3-.06-.43.03-.12.11-.17.28-.12.43.03.05.06.1.1.15,0,.01,0,.04-.01.05-.06.05-.14.09-.19.14-.11.14-.11.33,0,.47.1.14.29.2.45.12.08-.03.16-.08.23-.12.03-.02.05-.05.07-.02.06.07.14.12.22.15.12.03.25,0,.35-.06.13-.06.2-.2.17-.34-.03-.1-.08-.19-.14-.27-.03-.03-.03-.03,0-.05.52-.31,1.08-.55,1.66-.72.55-.16,1.12-.23,1.69-.21h.05v1.95s-5.19,0-5.19,0c-.05-2.13-.12-5.51-.16-7.84,0,0,0,0,.01,0,.93-.38,1.89-.69,2.86-.94,1.34-.33,2.71-.55,4.08-.66.59-.05,1.18-.08,1.77-.09h0ZM8.69,3.77c-.25,0-.49.09-.69.23-.29.19-.46.77-.49.98,0,.02-.02.03-.04.04-.23.03-.45.07-.68.12,0,0-.01-.01-.01-.02.02-.22.11-.43.26-.59.15-.15.32-.28.49-.4.01-.01,0-.05-.01-.05-.26-.1-.54-.1-.8.01-.36.15-.62.48-.68.87-.02.14-.03.27-.03.41,0,.02-.03.02-.05.02-.25.08-.5.17-.71.24-.01,0-.04,0-.04-.01,0-.23.05-.46.18-.65.12-.2.34-.3.51-.47.01-.01.03-.04.01-.05-.41-.16-.8,0-1.12.38-.22.33-.3.74-.2,1.12,0,.04,0,.07-.02.08-.07.03-.15.06-.23.09-.01,0-.03,0-.03-.02,0,0,0,0,0,0-.09-.3-.44-.24-.6-.15-.17.1-.23.32-.14.49,0,.01,0,.03,0,.04,0,0,0,0,0,0-.22.11-.31.37-.21.59,0,0,0,0,0,0,.09.14.27.2.43.14.09-.03.17-.08.25-.13,0,0,.02,0,.03,0,.13.18.37.22.55.09,0,0,.01,0,.02-.01.11-.08.16-.1.2-.24.01-.11-.02-.22-.09-.3-.01-.01,0-.04.01-.05,1.3-.67,2.73-1.04,4.2-1.07.53.02,1.04.21,1.45.55.01.02.04.03.06.03.02-.01.04-.03.05-.06.07-.25-.01-.51-.2-.68-.17-.17-.38-.29-.61-.34-.01,0-.02-.03-.01-.04.1-.1.21-.17.34-.22.2-.03.4-.05.61-.05.01,0,.03-.01.03-.03-.08-.23-.29-.38-.53-.4-.24-.03-.48,0-.69.1-.23.12-.4.32-.5.55,0,.01-.02.02-.03.02-.2,0-.4,0-.59,0-.01,0-.03,0-.03-.01.03-.19.12-.38.26-.52.2-.17.43-.3.68-.39.02,0,.04-.04.03-.05-.05-.07-.12-.13-.2-.17-.11-.03-.23-.04-.35-.04h0ZM12.09,5.37h8.85c-.01.69-.02,1.43-.04,2.19h-8.81v-2.19ZM8.68,7.8h6.67s.02,0,.02.02v5.14c0,.26-.06.52-.14.76-.27.72-.77,1.33-1.44,1.73-.53.31-1.13.48-1.74.49-.83-.01-1.63-.31-2.26-.86-.69-.57-1.09-1.42-1.1-2.31v-4.95s0-.02,0-.02ZM15.67,7.89h5.22c-.01.64-.02,1.3-.03,1.93h-5.18v-1.93ZM8.84,7.96s-.01,0-.01.02v4.75c.02.86.4,1.67,1.06,2.23.6.52,1.36.82,2.15.83.59,0,1.16-.17,1.66-.47.64-.38,1.12-.96,1.37-1.66.09-.24.13-.48.14-.73v-4.94s0-.01-.01-.01h0s-6.36,0-6.36,0ZM13.27,8.26s0,0,0,0c.04,0,.07.03.09.07l.24.72s0,.05,0,.07c-.01.02-.03.02-.05.02-.03,0-.05-.02-.06-.04l-.04-.12h-.33l-.04.13s-.04.04-.07.04c-.02,0-.03-.01-.04-.03-.01-.01-.02-.03-.01-.05l.23-.73s.05-.07.09-.08ZM12.51,8.27s.02,0,.02,0c.1,0,.2.06.23.16,0,.02,0,.05-.03.06,0,0,0,0,0,0-.02.01-.06,0-.07-.02-.03-.05-.08-.08-.13-.09-.06,0-.11.04-.13.1-.04.07-.05.14-.06.22,0,.08.01.16.05.23.02.06.09.1.15.1.11-.03.18-.13.17-.24v-.04h-.14s-.06-.02-.06-.05c0,0,0,0,0,0,0-.02,0-.05.06-.05h.19c.06,0,.07.05.07.09,0,.05,0,.1-.01.15-.02.09-.07.18-.15.24-.05.03-.1.04-.15.04-.1,0-.18-.06-.23-.15-.05-.1-.08-.2-.07-.31,0-.11.03-.21.08-.3.04-.08.11-.12.2-.12ZM9.52,8.27s0,0,0,0c.18,0,.24.11.24.15,0,.03-.06.08-.1.04-.04-.05-.1-.07-.16-.07-.07,0-.13.03-.15.1-.01.06.03.12.09.13,0,0,0,0,0,0,.09,0,.19.03.27.08h0c.06.04.09.11.08.18,0,.06-.02.13-.07.18-.07.06-.16.09-.25.09-.11,0-.21-.05-.26-.14,0-.01-.01-.06.03-.08.03,0,.06,0,.08.03.04.04.1.06.16.06.05,0,.11-.02.15-.05.03-.03.04-.08.02-.12-.04-.06-.12-.1-.19-.1-.06,0-.13-.03-.17-.07-.05-.05-.08-.12-.07-.2,0-.07.04-.13.1-.16.05-.04.12-.05.18-.05ZM11.17,8.27s0,0,0,0c0,0,0,0,0,0h.35s.06.03.06.06-.03.06-.06.06h-.11v.68s-.04.06-.07.05c-.03,0-.05-.03-.05-.05v-.68h-.12s-.06-.02-.06-.06c0-.03.02-.06.06-.06h0ZM11.73,8.27s0,0,0,0c0,0,0,0,0,0h.35s.06.03.06.06-.03.06-.06.06h-.11v.68s-.04.06-.07.05c-.03,0-.05-.03-.05-.05v-.68h-.11s-.06-.02-.06-.06c0-.03.02-.06.06-.06h0ZM14.47,8.27s0,0,0,0c0,0,0,0,0,0h.35s.06.03.06.06-.03.06-.06.06h-.11v.68s-.04.06-.07.05c-.03,0-.05-.03-.05-.05v-.68h-.12s-.06-.02-.06-.06c0-.03.02-.06.06-.06h0ZM13.79,8.27s0,0,.01,0h.19c.07,0,.15.02.21.06.06.05.1.12.11.21,0,.07-.02.15-.07.2-.03.03-.07.06-.12.07h-.02s.16.21.16.21c.01.02.02.04.02.06,0,.03-.02.05-.06.05-.02,0-.04,0-.06-.03l-.19-.26h-.12v.23s-.02.06-.05.07c0,0,0,0-.01,0-.03,0-.06-.02-.06-.06,0,0,0,0,0,0v-.73s0-.04.02-.05c.01-.01.02-.02.04-.02ZM9.92,8.28s0,0,0,0h.36s.06.03.06.06-.03.06-.06.06h-.12v.68s-.04.06-.07.05c-.03,0-.05-.03-.05-.05v-.68h-.12s-.06-.03-.06-.06c0-.03.03-.06.06-.06h0ZM10.51,8.28s0,0,0,0c.03,0,.06.03.06.06,0,0,0,0,0,0v.47c0,.05,0,.11.04.15.03.04.08.06.13.06.05,0,.1-.02.12-.06.03-.05.04-.1.03-.15v-.47h0s.04-.06.07-.05c.03,0,.05.03.05.05v.43c0,.09-.01.18-.06.26-.05.07-.14.11-.23.1-.09,0-.18-.03-.23-.1-.05-.08-.07-.17-.06-.26v-.43s.03-.06.06-.06ZM13.86,8.39v.33h.13c.1.01.19-.06.2-.16,0,0,0-.01,0-.02,0-.04-.02-.08-.05-.11-.04-.03-.08-.05-.13-.05h-.15ZM13.28,8.41l-.14.47h.28l-.14-.47ZM12.14,9.41s.02,0,.02.01c0,.02-.02.03-.04.04-.04.02-.07.04-.09.08-.03.05-.04.11-.04.16,0,.03.03.06.06.08.04.02.09.03.14.03.08,0,.15-.03.22-.06.09-.03.18-.04.28-.02.07,0,.14.02.19.06.02.02.02.04.01.04-.01,0-.03-.01-.04-.01-.05,0-.1.01-.14.03-.06.03-.09.04-.12.09-.01.02-.01.05,0,.07.01.02.03.04.04.06.01.04.04.09.06.12,0,0,.02.02.03.02.1.07.19.16.28.24.02.03.03.06.04.09,0,.01,0,.03-.02.02-.01,0-.02-.02-.04-.03-.02-.02-.03-.03-.05-.04-.06-.02-.12-.03-.18-.02-.03,0-.08.02-.05.04.05.03.1.07.13.12.08.09.11.2.11.31,0,0-.01.01-.02,0-.03-.04-.06-.08-.1-.11-.06-.04-.13-.07-.21-.06-.02,0-.06,0-.06.01.05.06.09.12.12.19.04.09.05.18.04.28,0,0-.02.01-.02,0-.02-.03-.05-.05-.08-.08-.03-.02-.06-.05-.09-.06-.07-.02-.14,0-.2.03-.06.03-.1.08-.13.13-.04.06-.06.13-.06.2-.01.09,0,.18.04.26.04.08.11.13.19.16.11.03.22.05.33.04.14,0,.28-.02.42-.02.13-.01.26-.01.4,0,.11.02.21.06.3.12.07.06.15.12.22.18,0,0,.03,0,.03,0,.07-.06.11-.14.13-.23.01-.09,0-.17-.06-.25-.05-.09-.12-.18-.17-.27-.07-.09-.14-.19-.2-.3-.03-.07-.04-.15-.02-.22.02-.05.06-.1.11-.13.01,0,.02,0,.02.02-.01.04-.02.07,0,.11.02.05.05.1.09.14.01.01.05,0,.06-.02.02-.04,0-.11.02-.15.02-.08.06-.16.11-.23.11-.08.23-.15.36-.2.03-.02.05-.1.09-.09.04.01.02.1-.01.14-.04.06-.09.1-.13.16-.06.08-.11.16-.16.25-.02.04-.03.09-.03.14,0,.04.04.08.07.09.02.01.05-.01.07-.02.04-.03.07-.06.1-.1.02-.04.01-.09.03-.13,0,0,.03,0,.04,0,.02.02.04.05.04.08,0,.04,0,.08-.01.11,0,0-.02.03-.03.05,0,.01-.01.03-.02.04-.04.06-.08.12-.12.13-.01,0-.02.02-.01.03.03.05.07.1.11.13.05.02.1.03.15.01.03,0,.05-.03.08-.04.01,0,0,0,0,.02,0,.03,0,.06-.02.09-.02.03-.04.06-.07.08-.05.03-.11.05-.17.05-.03,0-.07.02-.06.05,0,.03.02.06.04.09.02.02.05.04.08.04.04,0,.09-.01.12-.04.04-.03.06-.07.1-.11,0,0,.03,0,.03.01,0,.06-.02.11-.04.16-.03.05-.08.1-.13.14-.02.01-.03.03-.03.05,0,.03.02.06.04.08.02.03.05.05.08.05.03,0,.07,0,.1,0,.01,0,.01.02,0,.03-.03.03-.07.06-.12.07-.04.01-.09.02-.13,0-.08-.02-.13-.05-.21-.07-.04-.02-.09-.02-.14,0-.04.02-.08.05-.11.08-.02.02-.03.04-.03.06,0,.06.02.13,0,.19-.02.08-.05.16-.08.23-.03.06-.07.11-.11.16-.04.05-.09.07-.12.13-.01.02-.02.04-.04.06-.04.07-.06.15-.06.23.01.08.04.15.09.21l.15.24s.01.06,0,.08c0,.03-.02.06-.04.07-.2.11-.35.3-.42.53h0v.02s-.01.03-.02.04c-.05.05-.12.09-.19.1-.06.02-.11.03-.16.05-.02,0-.03.02-.04.03-.02.03-.02.07,0,.1.02.02.03.04.03.07,0,.02,0,.03-.01.04,0,0-.02.02-.03.02-.07.04-.14.07-.22.09-.05.01-.09,0-.07-.06.03-.1.06-.2.1-.29.03-.06.08-.1.13-.14.07-.06.14-.11.21-.16.05-.03.09-.08.12-.13.06-.09.12-.19.19-.27.03-.04.04-.08.03-.13-.01-.08-.07-.15-.14-.19-.03-.01-.06-.02-.09-.03-.1-.03-.18-.09-.25-.18-.01-.02-.04-.04-.06-.04-.06,0-.08.09-.08.14,0,.07,0,.14,0,.21,0,.02,0,.05,0,.07,0,.02-.02.03-.04.03-.2.07-.39.16-.56.28-.03.02-.05.04-.06.07l-.02.03c-.05.08-.14.11-.22.08-.01,0-.03,0-.04-.01-.02,0-.05,0-.06.02-.02,0-.03.02-.04.04,0,0,0,.01-.01.02h0s0,.01,0,.01c0,0,0,.01,0,.02l.02.06s0,.07-.02.09c0,0,0,0-.01,0-.07.03-.13.04-.2.06-.04,0-.07-.01-.06-.06.01-.08.04-.16.07-.24,0-.03.03-.05.06-.06.07-.04.13-.08.18-.14.05-.04.11-.07.17-.07.09,0,.19-.04.26-.1.08-.06.16-.12.23-.19.11-.14.1-.33,0-.46l-.02-.03s-.03-.07-.05-.1c-.02-.03-.03-.07-.04-.1,0-.07.03-.13.03-.2,0-.01,0-.02-.02-.02-.04-.02-.09-.03-.14-.03-.19.02-.37.02-.56,0-.14-.04-.27-.1-.39-.18-.05-.03-.09-.07-.14-.1-.01,0-.02,0-.03,0-.13.1-.3.14-.46.12h0c-.1-.02-.2-.04-.29-.08-.07-.03-.19-.07-.26-.02-.03.02-.02.06-.02.09,0,.1,0,.2-.01.31,0,.01,0,.02,0,.03,0,0,0,0,0,0,.01,0,.02.02.04.02h.01s.03.03.05.06c0,.02.01.04.02.06,0,.02,0,.04,0,.06,0,.01,0,.03,0,.04-.01.04,0,.09,0,.14,0,.02.02.04.04.05,0,0,0,0,.01,0,0,0,0,0,.01,0,0,0,0,0,.01,0h.01s.01,0,.02,0h0s.02-.01.03-.01c0,0,0,0,.01,0,.04,0,.06.04.06.07,0,.08-.01.15-.05.22-.01.03-.05.04-.08.03,0,0,0,0,0,0h-.02c-.05-.04-.1-.08-.14-.12-.03-.03-.05-.07-.05-.11,0-.03,0-.06-.03-.08,0,0-.02-.01-.03-.02-.03,0-.05-.02-.07-.05-.05-.06-.07-.14-.05-.22.03-.21.02-.43-.05-.64-.01-.03-.01-.07,0-.11l.02-.04s0-.01,0-.02c0-.02.02-.03.04-.03,0,0,.02,0,.03,0,.15,0,.3-.02.45-.07.02,0,.04-.01.06-.01.02,0,.05,0,.07,0,.03,0,.06-.03.02-.05-.03-.03-.06-.06-.08-.09-.01-.02-.03-.03-.05-.02,0,0,0,0-.01,0h0s-.1.04-.14,0c0,0,0-.01-.01-.02-.04-.06-.07-.13-.09-.2-.02-.09-.05-.17-.11-.24-.05-.05-.12-.07-.19-.06-.05.01-.1.05-.13.1l-.06.09s-.03.04-.03.07c0,0,0,.01,0,.02,0,.01,0,.02,0,.03.02.05,0,.12-.04.15l-.09.07s-.03.04-.03.06c0,.02,0,.04-.01.06,0,.01,0,.03,0,.05,0,0,0,0,0,.01,0,.02.02.03.03.04,0,0,0,0,.01.01,0,0,0,.01.01.02.01.02,0,.05-.01.07,0,0-.02.01-.02.02-.06.05-.12.08-.19.11,0,0-.02,0-.03,0-.04,0-.05-.03-.05-.06,0-.04,0-.09,0-.13,0-.05.02-.1.06-.14.05-.06.07-.14.07-.23,0-.05.01-.09.04-.13.02-.03.04-.06.06-.09,0-.02.02-.05.04-.07.1-.12.2-.25.28-.38.05-.09.15-.19.24-.07.02.03.05.06.08.08.08.06.17.11.26.16.09.05.11-.04.12-.12h0s.02-.07.04-.1c.06-.09.12-.17.2-.25.04-.04.1-.08.15-.11.02-.02.02-.02.03-.04,0-.02.02-.05.03-.08.01-.03.02-.06.02-.08.02-.03.03-.06.04-.1h0s0,0,0,0h0s0-.01,0-.01c0-.01-.01-.02-.02-.02-.03-.02-.07-.03-.1-.03h0c-.05,0-.1.01-.15.03-.02.01-.04.03-.05.05-.01.02-.02.04-.04.06-.04.03-.09.04-.13,0-.02-.02-.01-.04,0-.06.01-.02.02-.03.03-.05,0,0,0-.02,0-.02h0s0,0,0,0c0,0,0,0,0,0-.01-.01-.03-.01-.05,0-.03,0-.06.02-.08.03-.03.02-.07,0-.09-.03,0,0,0-.01,0-.02,0-.02,0-.04,0-.06,0-.02.02-.04.04-.05.02,0,.05-.02.05-.04,0,0,0-.02,0-.02,0,0,0-.02.01-.02,0,0,.02-.02.03-.02.11-.07.22-.15.32-.23.02-.02.04-.02.06-.01h.01s.1.04.15.03c.02,0,.03-.01.04-.03,0,0,0,0,0,0h0s0-.01,0-.01h0s-.02-.02-.03-.02l-.06-.02s-.04-.01-.05-.02c-.02-.01-.03-.04-.02-.06.02-.11.15-.11.24-.1h0s.09,0,.14-.02c.06-.02.11-.07.16-.09.06-.03.12-.06.18-.08.02,0,.03,0,.05,0,.01,0,.03-.01.03-.02.04-.06.09-.11.14-.16.07-.04.15-.07.24-.09,0,0,.02,0,.03,0h0ZM11.71,9.97s-.07,0-.1.03c0,0-.02.02,0,.02.02.02.05.03.07.05.01.01.03.03.03.05,0,.02.02.04.03.06.02.04.03.08.05.12.02.07.04.14.05.21.01.06,0,.12.01.18v.08s0,.05,0,.07c0,.03,0,.07,0,.1v.08c0,.07.01.12.04.12.03,0,.06,0,.08-.02.05-.03.08-.09.09-.15.03-.19.03-.39,0-.58,0-.14-.08-.27-.19-.36-.04-.04-.09-.06-.14-.06h0ZM15.67,10.13h5.18c-.02.82-.03,1.6-.05,2.26h-5.13v-1.86s0-.4,0-.4ZM15.66,12.67h5.12c-.03.99-.22,1.97-.55,2.91-.39,1.1-.92,2.15-1.56,3.12-.67,1-1.48,1.9-2.41,2.67-.36.31-.75.59-1.15.85-.63.38-1.28.72-1.96,1-.22.1-.42.19-.6.25-.19.07-.36.12-.47.16v-7.41c.11,0,.21-.01.32-.02,0,.01.02.06.03.1.05.08.13.14.22.17.11.02.23-.02.31-.11.11.09.26.12.39.07.1-.03.17-.12.18-.23,0-.07,0-.14-.03-.21l-.04-.07c.26-.11.51-.25.74-.41h.02c.37-.1,1.87-.64,2.79-.65.57-.01,1.13.12,1.63.39.26.15.49.34.68.56,0,0,.01.03.04.03.01,0,.03,0,.03-.02.07-.16.09-.34.08-.52-.02-.28-.3-.49-.38-.57,0,0-.01-.02.02-.04.03-.03.07-.06.1-.09.16-.13.36-.2.56-.21.03,0,.02-.04.01-.08-.06-.25-.42-.41-.79-.35-.25.05-.47.2-.61.42,0,.01-.04.03-.06.01-.12-.04-.24-.08-.37-.11-.05-.01-.02-.04-.02-.05.07-.13.18-.25.3-.34.14-.11.31-.19.49-.22.02,0,.02-.03.02-.04-.07-.15-.21-.26-.38-.3-.27-.09-.56-.03-.78.14-.21.18-.37.41-.44.67-.01.02-.02.04-.04.03-.1-.02-.34,0-.37-.02-.01,0-.01-.03,0-.05.04-.14.12-.27.22-.38.09-.13.22-.22.36-.29.03-.01.04-.05.03-.07,0,0,0-.02-.02-.02-.42-.22-.93-.11-1.22.26-.14.21-.24.45-.3.7,0,0-.02.04-.04.04l-.51.11-.08.02-.02.02c.31-.5.48-1.07.5-1.65v-.17ZM3.22,12.76h5.19v.09c0,.78.31,1.53.84,2.1H3.56c-.2-.71-.31-1.45-.34-2.19h0ZM3.63,15.2h5.86s.07.07.11.1c.61.52,1.37.83,2.17.9v1.21h-7.22c-.31-.59-.58-1.2-.8-1.83-.04-.13-.09-.25-.12-.38h0ZM14.21,15.49h-.01s0,.01,0,.01h0s.01,0,.02-.01h0ZM15.95,15.68c-.18,0-.36.05-.51.15-.17.09-.31.24-.39.41-.1.25-.15.51-.17.77,0,.02-.02.03-.04.03-.11.02-.23.05-.34.09-.01,0-.02,0-.02-.02-.04-.25.02-.51.15-.73.05-.1.13-.19.22-.26.02-.01.02-.03.01-.05,0,0-.02-.02-.03-.02-.22-.04-.45,0-.65.11-.25.14-.42.39-.45.67-.02.2,0,.4.04.59,0,0,0,.03-.02.03-.08.04-.28.15-.35.18,0,0-.02,0-.02,0-.04-.15-.13-.28-.27-.36-.14-.06-.31-.05-.45.02-.09.05-.17.13-.22.22-.07.16-.02.35.13.45,0,0,.02.02,0,.02-.09.05-.09.06-.16.16-.07.15-.05.32.05.45.14.21.43.27.65.12.02-.01.04-.03.05-.04,0,0,.02,0,.02.02.04.06.09.11.14.15.14.08.31.08.45,0,.15-.08.23-.25.21-.42,0-.1-.04-.19-.11-.26-.01-.02,0-.02.03-.05.6-.35,1.27-.57,1.96-.67.36-.06.72-.05,1.08.02.23.05.45.16.63.31.15.12.28.25.41.4.04,0,.08,0,.12-.02.07-.16.08-.35.01-.52-.08-.22-.21-.42-.38-.59,0,0,0-.01,0-.02,0-.03.01-.05.05-.08.16-.15.35-.25.56-.3.03,0,.04-.02.02-.05-.16-.29-.5-.41-.81-.3h0c-.19.08-.36.23-.45.42,0,.01-.02.05-.04.04-.09,0-.24-.03-.33-.04-.04,0-.02-.04-.02-.05.04-.12.1-.23.19-.32.12-.14.27-.25.44-.32.01,0,.02-.01.02-.02,0,0,0,0,0,0-.11-.14-.28-.22-.47-.23-.23-.01-.45.07-.62.24-.19.2-.31.46-.34.74,0,.02-.02.03-.04.03-.09.01-.18.02-.28.02-.02,0-.01-.02-.01-.04,0-.14.04-.28.1-.41.13-.24.32-.44.55-.58.04-.02.04-.08.03-.08-.11-.05-.23-.07-.35-.07ZM4.71,17.69h7.07v2.19h-5.56c-.33-.37-.63-.77-.9-1.18-.22-.33-.42-.67-.61-1.01h0ZM14.78,18.87c-.1,0-.19.02-.27.07-.22.12-.4.32-.48.56-.05.19-.04.39.01.57,0,0,.01.02,0,.03-.08.03-.14.07-.21.1,0,0-.02,0-.03,0-.13-.24-.1-.54.09-.74.02-.01.03-.03,0-.05-.2-.03-.4.04-.53.19-.15.18-.2.43-.12.66.02.09.05.18.1.26,0,0,.03.02.01.03l-.15.11s-.01,0-.02,0c-.06-.11-.17-.2-.29-.24-.11-.03-.23,0-.32.09-.14.14-.14.37,0,.51.04.04.09.07.15.09,0,0,.02.01,0,.02-.08.05-.15.13-.19.21-.06.14-.02.3.09.41.08.07.19.1.29.09.16-.05.29-.16.36-.31,0,0,.02-.02.03,0,.06.09.16.16.26.2.11.04.24.01.32-.07.12-.09.17-.26.11-.4-.05-.09-.12-.16-.2-.22-.01-.01,0-.03.02-.06.41-.33.89-.54,1.4-.62.35-.05.71.01,1.02.17.12.07.24.16.34.27.01,0,.05.02.06,0,.16-.14.17-.39.03-.55-.06-.07-.13-.12-.21-.17,0,0,0,0,0-.01.06-.16.17-.29.3-.39.09-.06.19-.11.3-.14.02,0,.02-.02,0-.05-.13-.29-.64-.3-.87-.15-.15.1-.26.24-.35.4,0,.01-.01.04-.02.03l-.21-.06s0-.02,0-.03c.14-.28.4-.48.7-.57.01,0,.01-.02,0-.03-.11-.27-.66-.25-.93-.07-.25.17-.43.42-.49.71,0,.02,0,.04,0,.04-.07.03-.15.04-.23.06-.01,0-.02-.01-.02-.02-.02-.13,0-.27.07-.39.09-.15.2-.29.32-.41.02-.02.02-.04,0-.06,0,0,0,0,0,0-.07-.04-.15-.07-.24-.07h0ZM11.78,20.16v3.42c-.1-.03-.21-.07-.34-.12-.18-.06-.37-.15-.6-.25-.68-.28-1.33-.62-1.96-1-.4-.26-.78-.54-1.15-.85-.45-.37-.87-.78-1.27-1.21h5.31Z"/>
</svg>