<?xml version="1.0" encoding="UTF-8"?>
<svg id="Layer_1" xmlns="http://www.w3.org/2000/svg" version="1.1" viewBox="0 0 24 24">
  <!-- Generator: Adobe Illustrator 29.5.0, SVG Export Plug-In . SVG Version: 2.1.0 Build 137)  -->
  <path d="M12,0C5.37,0,0,5.37,0,12s5.37,12,12,12,12-5.37,12-12S18.63,0,12,0ZM12,.78c6.2,0,11.22,5.02,11.22,11.22s-5.02,11.22-11.22,11.22S.78,18.2.78,12,5.8.78,12,.78ZM11.32,1.41c-.33,0-.66.04-.99.08l-.11,2.94c.24-.04.47-.07.71-.09l.07-1.99v-.14l.03.13.66,1.49h.61l.66-1.49.04-.13v.14l.06,1.99c.23.02.47.05.71.09l-.11-2.94c-.33-.04-.66-.06-.99-.08l-.65,1.63-.02.12-.02-.12s-.65-1.62-.65-1.63h-.01ZM18.02,3.23l-1.54,2.43c.19.15.45.37.62.52l1.45-.75.09-.07-.07.09-.75,1.45c.16.18.4.46.53.63l2.43-1.54c-.15-.19-.3-.38-.46-.57l-1.54,1.01-.1.09.08-.11.68-1.36-.48-.48-1.36.68-.11.08.09-.11,1.02-1.54c-.18-.15-.35-.29-.57-.46h-.01ZM5.5,3.79c-.36.04-.64.28-1.39,1.12-.26.3-.51.6-.76.91l2.07,1.97c.69-.76.97-1.04,1.51-1.61.38-.41.6-.87.22-1.32-.21-.24-.56-.3-.85-.18h-.03v-.02c.08-.27,0-.56-.23-.73-.15-.12-.35-.17-.54-.15h0ZM5.51,4.4c.14-.04.28.06.31.2.03.14-.06.27-.15.38-.22.25-1.03,1.1-1.03,1.1l-.4-.38c.42-.51.86-.97,1.06-1.16.06-.06.13-.11.22-.14h0ZM12,4.88c-3.65,0-6.71,2.76-7.08,6.39h0c-.4,3.92,2.45,7.41,6.37,7.81.72.07,1.44.04,2.15-.11,3.31-.68,5.68-3.59,5.68-6.97,0-3.93-3.19-7.11-7.12-7.11h0ZM6.46,5.12s.1.01.14.04c.09.06.13.16.11.26-.03.12-.12.23-.2.32l-1.05,1.12-.42-.4s.79-.83,1.05-1.1c.1-.11.17-.17.24-.2.04-.02.09-.04.14-.04h0ZM12,5.82c3.41,0,6.18,2.76,6.18,6.17h0s-6.18.01-6.18.01v6.18c-3.41,0-6.18-2.76-6.18-6.17h0s6.18-.01,6.18-.01v-6.18Z"/>
</svg>