<?xml version="1.0" encoding="UTF-8"?>
<svg id="Layer_1" xmlns="http://www.w3.org/2000/svg" version="1.1" viewBox="0 0 24 24">
  <!-- Generator: Adobe Illustrator 29.5.0, SVG Export Plug-In . SVG Version: 2.1.0 Build 137)  -->
  <path d="M11.54,0s-.01.14-.05.23c-.03.07-.12.13-.11.18s.06.12.15.16c.09.04.12.07.2.1.07.02.18.08.2,0,.03-.06-.01-.15-.06-.23-.09-.14-.13-.17-.25-.37-.02-.04-.04-.09-.09-.09h.01ZM12.22,0s-.05.17-.11.31c-.06.16-.02.24.01.3.04.06.1.11-.01.17-.11.06-.25.04-.25.04,0,0-.12-.02-.22-.08-.1-.04-.2-.09-.3-.13,0,0-.19-.05-.32-.04-.13,0-.14.02-.24.03h-.13s-.1-.02-.1.03.11.05.18.09.25.03.22.07c-.04.04-.2.05-.22.04-.01,0-.12-.02-.2-.02-.14,0-.15,0-.35.11-.03,0-.02.09.04.06.1-.03.2-.04.3-.04.13,0,.2.04.33.08.11.03.12.05.28.07.03,0,.1-.02.1.02,0,.02-.04.05-.04.05,0,0-.1.02-.09.05.02.04.11,0,.15,0s.11,0,.1.05l-.02.03c-.1.03-.2.06-.29.1-.27.11-.38.24-.63.37-.25.12-.64.27-.64.27,0,0-.12.07-.29.11s-.18.03-.3.06c-.1,0-.19.04-.27.09-.06.03-.11.07-.15.12l-.15.23-.09.13s-.04.06-.05.11c-.02.05-.03.08-.04.13-.03.13,0,.2.02.33.01.03.01.05.02.09.01.03.05.07.05.07h.04s.15,0,.25-.02.24-.06.24-.06l.18-.05.12-.04s.07,0,.09.04c.01.03-.02.09-.02.09,0,0-.06.03-.12.05-.05.02-.18.05-.19.07l-.14.04h-.12s-.02.02-.04.05t-.02.05s.03.04.06.07c.04.03.06.05.12.06.07.03.12.02.19.02.09,0,.19-.02.27-.07.09-.05.12-.05.24-.1.04,0,.08-.02.12-.02.2-.02.32,0,.52.04.2.03.3.1.51.13.22.03.34.1.57.04.11-.02.17-.08.23.03.05.1.04.15.04.15,0,0,0,.07-.08.27s-.31.71-.31.71l-.16.32s-.13.26-.43.59c-.11.12-.21.24-.32.35,0,0-.16.12-.32.32-.16.2-.16.28-.31.43-.1.1-.15.15-.27.23-.12.07-.26.05-.63.31-.32.23-.49.41-.52.4-.02-.01-.13-.1-.17-.12-.03-.02-.65-.44-.65-.44l-.26-.17-.12-.08-.02-.04-.06-.09s-.1-.12-.22-.21c-.12-.12-.27-.2-.44-.24-.18-.05-.3-.09-.48-.02-.1.03-.2.09-.27.17-.11.11-.13.19-.22.32s-.17.25-.22.31c-.04.07-.13.24-.13.24,0,0-.21.34-.33.57-.14.25-.19.4-.32.64-.2.38-.49.76-.57.93l-.08.19s-.02.1-.03.16c0,.06,0,.17-.02.22,0,.04-.03.08-.05.12,0,.01-.13.26-.17.42-.04.16-.14.67-.02.73.12.06.99-.31,1.11-.68.08-.24-.24-.35-.15-.57.03-.07.05-.09.11-.16.09-.14.05-.43.22-.7.12-.19.35-.44.68-.81.2-.23.4-.59.4-.59,0,0,.04-.13.13-.11.1.02.18.01.18.01l.04.03.09.09.13.19s.22.31.29.4c.08.09.15.15.26.24.12.11.16.16.31.28.22.17.14.24-.14.09-.12-.06-.24-.11-.36-.14-.13-.03-.61-.16-.86-.19-.24-.03-.28-.02-.28-.02,0,0-.12-.01-.26.07-.14.09-.22.15-.22.15,0,0-.16.18-.17.22-.01.03-.09.16-.09.16,0,0-.04.07-.05.14-.02.08-.01.15-.01.15v.16l.02.15s.03.38.11.75c.02.11.04.28.04.28l.05.39s.03.41.07.55c.03.13.05.14.08.23.04.16-.03.24.04.43.07.19.14.17.22.29.05.09.07.11.12.22.04.11.18.46.34.72.17.27.4.6.55.57.15-.03.26-.27.26-.27,0,0,.17-.46.07-.91-.11-.46-.6-.24-.67-.58-.01-.07,0-.19,0-.19,0,0-.01-.14-.03-.18s-.19-.36-.26-.63c-.05-.2-.04-.86-.09-1.04-.12-.47-.13-.43-.07-.52.08-.09.14-.06.14-.06h.1l.08.04.14.09.19.15.36.24s.2.12.29.16.16.1.16.1l.1.06.16.12.03.03.02.04s.08.17.4.36c.26.15.48.11.58.23.02.02.2.27.29.42.11.17.24.37.28.44.04.06.31.4.31.4l.35.39.46.43.42.35.27.22s.24.23.51.41c.26.17.27.19.44.31.13.09.3.21.47.34.17.14.37.4.29.48-.05.03-.15-.11-.33-.27-.12-.11-.24-.21-.38-.3-.19-.15-.29-.23-.51-.36-.11-.06-.3-.18-.31-.16-.07.23-.07.44-.06.72.01.19.04.39.11.63.05.24.11.37.19.59.09.23.25.58.25.58l.25.5.23.38.12.19.04.06s.05.13,0,.22-.12.27-.22.28c-.1.02-.32.03-.32.03l-1.28-.02-.67-.05s-.07-.04-.46-.04c-.23,0-.41.1-.54.11-.11.01-.63-.03-.99.11-.33.14-.48.17-.6.39-.09.16.42.42.84.52.68.15.48-.14.74-.32.03-.02.04-.04.08-.05.17-.05.27.08.44.08.19,0,.3-.06.49-.1.98-.13,2.5.33,2.5.33,0,0,.38.12.55.09.2-.04.16-.12.22-.24.05-.1.03-.12.04-.23,0-.06-.01-.1-.02-.16-.04-.18-.16-.44-.16-.44,0,0-.09-.19-.12-.29-.04-.14-.09-.23-.11-.38-.06-.4-.05-.36-.05-.59,0-.41.04-.63.15-1.03.16-.58.46-.83.69-1.39.06-.15.06-.36.14-.39.09-.01.07.27.03.43-.14.56-.48.79-.64,1.36-.12.44-.18.7-.15,1.15.01.25.11.64.11.64,0,0,.13.43.19.59.06.16.19.43.19.43l.29.51.15.25s.11.1.05.26c-.05.16-.16.26-.29.4-.36.43-1.21,1.06-1.43,1.21-.3.23-.29.29-.31.36-.12.34-.46.35-.84.76-.09.09-.31.32-.27.52.02.08.94.24,1.48.01.42-.18.05-.39.17-.59.09-.15.3-.15.4-.28.16-.21.05-.2.19-.37.46-.56.76-.88,1.59-1.39.07-.04.22-.11.22-.11,0,0,.12-.06.16-.12.05-.09.04-.16.04-.26,0-.07-.01-.1-.01-.16,0-.08.01-.12-.01-.19-.02-.12-.1-.22-.14-.28-.08-.1-.14-.22-.16-.35-.06-.2-.05-.41.03-.6.09-.23.28-.41.28-.41l.48-.32s.42-.3.55-.42c.14-.12.41-.36.6-.64.23-.31.34-.5.44-.88.03-.14.07-.35.07-.35,0,0,0-.15.09-.16.08-.01.11.02.11.02,0,0,.07.04.1.26.01.22-.05.46-.05.46,0,0-.07.25-.09.4-.01.1-.01.15-.01.26,0,.18.08.33.08.33,0,0,.04.03.04-.04,0-.12.02-.23.06-.34.03-.11.05-.09.12-.27.09-.24.01-.21.05-.35.02-.06.08-.13.14-.13s.08.09.08.09c0,0,.07.28.01.54-.05.26-.25.61-.25.61l-.15.26s-.11.18-.15.3c-.04.13-.06.18-.03.3.03.13.13.3.18.27.04-.03-.06-.14.07-.4s.3-.42.3-.42c0,0,.24-.28.34-.49.1-.19.19-.51.19-.51,0,0,.08-.28.05-.52-.01-.23-.05-.34-.05-.34l-.1-.17-.06-.13.02-.08s.1.04.16.13c.08.1.13.22.16.34.03.1.04.2.04.3,0,.09-.03.44.1.67.05.11.18.35.19.25.02-.25-.09-.36-.08-.59.01-.26.08-.19.1-.32.02-.14.05-.17.03-.35-.02-.13-.05-.27-.1-.4l-.08-.17-.03-.06s.02-.03.05-.03l.26-.09s.33-.15.46-.26c.14-.1.3-.27.3-.27,0,0,.22-.27.32-.46.26-.48.26-1.1.25-1.38-.01-.27-.09-.62-.09-.62,0,0-.09-.43-.06-.71.02-.28.04-.41.04-.41,0,0-.01-.28.23-.58s.34-.49.39-.72c.04-.19-.02-.5-.11-.39-.1.13-.14.39-.28.6-.19.3-.47.67-.61.67-.08,0-.1-.17-.1-.17,0,0-.1-.29.07-.66.12-.26.18-.33.33-.52.14-.18.23-.28.32-.47.09-.17.11-.2.16-.47.01-.06-.01-.2-.07-.19-.09,0-.32.52-.57.81-.24.27-.68.61-.68.61,0,0-.04.03-.04-.06-.01-.07-.02-.3.02-.5.05-.26.15-.5.29-.72.2-.35.46-.6.59-.73.05-.05.22-.15.13-.2-.08-.04-.3.15-.47.28-.21.16-.29.2-.5.46-.22.26-.27.36-.27.36,0,0-.2.33-.26.65-.05.32-.05.5-.05.5,0,0,0,.29.03.46.02.18.1.46.1.46,0,0,.11.31.15.51.04.19.12.76.12.76,0,0,.05.41.02.8-.03.39-.06.61-.11.73-.04.12-.16.43-.35.65-.18.2-.23.24-.23.24,0,0-.19.16-.35.25s-.33.16-.5.23c-.09.02-.18.03-.27.03h-.14l-.04-.03-.02-.09s-.11-.42-.23-.69c-.11-.23-.33-.54-.33-.54,0,0-.39-.53-.69-.82-.34-.34-.73-.6-.97-.78-.09-.06-.28-.18-.28-.18,0,0-.78-.78-1.06-1.41-.19-.43-.32-.74-.27-1.21.01-.11.05-.31.07-.31l.14.04s.14.13.26.17c.06.02.18.04.18.04,0,0,.1.01.15.02.05.02.15.05.22.09.06.03.16.1.16.1l.18.14.19.15s.11.08.14.09c.03.01.05.02.06.02h.04s.04-.01.05-.06-.05-.01-.15-.12c-.06-.05-.11-.11-.15-.18,0,0-.02-.09-.11-.18s-.19-.18-.19-.18c0,0-.08-.05-.18-.09-.11-.03-.14-.03-.15-.08-.01-.04.13-.02.13-.02,0,0,.16.02.29.09.13.06.2.14.2.14l.09.07.06.05.05.03s.05.05.06-.02c.01-.06-.01-.12-.02-.13l-.05-.05-.21-.18c-.05-.06-.11-.11-.17-.15-.09-.06-.18-.11-.28-.15-.11-.04-.17-.03-.28-.09-.07-.03-.14-.05-.18-.12-.01-.01-.06-.06.03-.03.1.02.16.05.27.08.17.04.28.04.44.1.06.02.15.06.15.06l.2.09s.28.15.47.16c.14.01.29-.01.42-.06.08-.03.15-.08.22-.13.02-.02.04-.04.05-.06l.02-.05v-.04c-.05-.06-.16.11-.33.14-.18.03-.17.05-.29.03-.11-.01-.22-.07-.3-.15-.17-.16-.24-.31-.46-.41-.1-.04-.27-.09-.27-.09,0,0-.24-.07-.36-.15-.1-.05-.3-.09-.23-.17.03-.04.29.11.48.13.14.02.24.01.34.01s.26-.03.28-.03c.02-.01.11,0,.18.02.07.02.12.05.19.09.08.03.16.09.18.09h.06v-.05l-.03-.02-.06-.04s-.1-.05-.18-.14-.16-.18-.29-.22-.28-.06-.28-.06h-.15l-.06-.02s-.11-.03-.02-.05c.05-.01.1-.03.15-.03.08-.02.17-.01.25.01.09.03.23.11.24.11.01.01.14.11.28.14.14.03.32.04.32.04l.09-.02h.04l.03-.03v-.05s-.01-.04-.07-.05c-.11-.01-.22-.05-.31-.12-.12-.09-.2-.17-.2-.17,0,0-.09-.08-.26-.12-.16-.04-.21-.04-.21-.04l-.06-.02-.12-.05s-.06-.03-.1-.09c-.04-.05-.11-.15.08-.1.18.05.23.09.23.09,0,0,.1.1.18.11.05.01.1.02.13-.02.05-.05-.1-.12-.21-.19-.07-.05-.13-.12-.17-.19,0,0-.06-.05.03-.03.1.02.27.13.27.13,0,0,.09.04.13.05.03.01.12.06.16.09.03.01.13.03.19.07.09.05.13.14.17.17s.08.09.13.1c.05.01.06.03.1.01.01,0,.03-.02.04-.03,0,0,.01-.02-.04-.05s-.12-.12-.12-.12l-.02-.04v-.04l-.06-.09-.1-.14s-.15-.2-.29-.28c-.13-.07-.23-.12-.23-.12l-.1-.05c-.05-.04-.08-.08-.12-.13-.05-.07-.07-.11-.14-.17-.12-.12-.48-.18-.34-.27.08-.04.17-.02.22-.01.04.01.14.05.24.08.06.02.11.02.17.05.06.02.14.03.17.05s.06.07.09.08c.01.01.1.15.25.22.15.07.23.13.38.14.12.01.31-.03.31-.03,0,0,.06-.02.01-.08-.05-.05-.05-.06-.1-.07-.17-.07-.31-.04-.44-.17-.05-.05-.08-.07-.12-.15-.04-.09-.02-.11-.05-.16-.02-.05-.08-.13-.08-.13,0,0-.16-.19-.33-.29-.12-.06-.23-.13-.33-.22-.03-.02-.1-.11-.1-.11l-.06-.09-.03-.06c-.02-.12.19.03.31.08.19.06.29.15.48.22.11.03.17.03.28.07.18.07.24.26.43.28.11.01.32.05.28-.04-.04-.11-.26-.11-.36-.24-.05-.05-.05-.11-.11-.16-.09-.11-.29-.2-.29-.2,0,0-.06-.05-.14-.2-.06-.15-.23-.26-.52-.4-.19-.1-.58-.12-.43-.21.09-.06.16-.05.28-.02.12.04.16.1.26.14s.14.05.16.07c.02.01.1.04.13.04.02.01.18.03.23.04l.22.05.17.06s.09.03.14.03.14-.02.14-.02l.06-.04v-.02s.04-.05-.04-.06c-.04,0-.09-.01-.13-.01l-.08-.02h-.03s-.15-.13-.28-.18c-.05-.02-.11-.04-.16-.06h-.05l-.06-.02s-.06,0-.14-.08c-.09-.08-.12-.12-.19-.19l-.1-.1s-.09-.07-.09-.12c.01-.09.19.1.19.1l.13.09s.11.08.3.09c.19,0,.43-.05.43-.05,0,0,.03-.02.14,0s.19.1.19.1l.09.08.13.14h.02s.07-.08-.03-.19c-.1-.12-.26-.22-.26-.22,0,0-.22-.13-.43-.17-.21-.04-.31-.04-.31-.04,0,0-.16,0-.26-.11s-.16-.21-.16-.21l-.03-.15s-.05-.07-.16-.11c-.1-.04-.21-.11-.21-.11,0,0-.16-.05-.17-.13-.03-.14.27,0,.43.03.15.03.22.09.36.12.11.03.23.04.34.03.07,0,.12,0,.19-.02h.21c.11.02.15.08.26.12.07.03.1.06.17.07s.19.06.17,0l-.03-.04c-.05-.08-.12-.08-.18-.13-.14-.11-.2-.19-.36-.27-.09-.05-.19-.08-.29-.1-.09,0-.15,0-.24,0-.1-.03-.13-.08-.23-.13-.15-.09-.24-.16-.4-.23-.09-.03-.19-.06-.29-.09h-.08l-.03-.02c-.15-.05.27-.17.46-.23.1-.02.14-.04.24-.03.09,0,.18.13.28.08.14-.08-.16-.28-.26-.31-.13-.05-.35,0-.35,0h-.49l-.14-.03s-.09,0-.15-.08c-.06-.08-.31-.38-.59-.42-.29-.04-.38,0-.4-.02-.25-.39-.51-.47-.7-.65-.05-.05-.14-.17-.16-.16h0l-.05-.22ZM13.39,1.14h.05l.05.03s.08.09.11.15c.01.04-.13,0-.18-.02s-.11-.04-.15-.08c0,0-.02-.03.03-.06.03,0,.06-.02.09-.02h0ZM13.65,1.67h.05l.05.03s.08.09.11.15c.01.04-.13,0-.18-.02s-.11-.04-.15-.08c0,0-.02-.03.04-.06.02-.02.05-.03.08-.03h0ZM11.76,1.68h.08s.04,0,.11.03c.06.04.11.17.11.17,0,0,.01.02-.04.02-.03,0-.03-.05-.06-.08-.04-.03-.07-.04-.13-.06-.05-.02-.13,0-.14-.04,0-.03.04-.04.08-.05h0ZM10.92,1.81v.07s-.14.22-.33.31-.32.13-.69.16c-.05,0-.03-.03-.03-.03,0,0,.42-.12.65-.25.11-.06.22-.13.32-.22.02-.02.05-.04.07-.05h.01ZM11.67,1.87s.06,0,.14.05.14.24.14.24c0,0,.02.12-.03.16s-.14-.03-.18-.1c-.04-.05-.1-.09-.16-.11-.09-.03-.22.06-.24,0,0-.02.01-.08.01-.08,0,0,.02-.06.12-.12.09-.05.2-.05.2-.05h0ZM13.67,2.28s.1.04.15.04c.14,0,.26,0,.35.02s.11.08.06.08c-.03,0-.06,0-.1,0-.1,0-.09-.04-.21.02-.13.06-.03.03-.22.1-.17.07-.13-.11-.13-.11,0,0,.01-.03.03-.12,0-.03.03-.04.05-.04h.02ZM8.83,2.78c.06,0,.18.04.18.14.01.1-.07.05-.12.09-.03.02-.05.03-.1.07s-.11.15-.14.12c-.04-.03-.02-.15-.02-.15,0,0,.03-.09.08-.17.05-.09.12-.09.12-.09h0ZM13.96,2.89h.05s.03,0,.05.03c.02.02.11.1.11.14,0,.03-.14-.02-.2-.03-.06,0-.15-.08-.15-.08,0,0-.02-.02.04-.05.03,0,.07-.02.1-.02h0ZM12.07,2.98s0,.02-.01.05c-.04.09-.17.19-.17.19,0,0-.15.21-.18.25-.14.11-.31.04-.39.06-.06,0-.02-.06-.02-.06,0,0,.18-.07.3-.14.16-.08.43-.35.47-.35ZM9.86,3.17s.04,0,.04.04c.01.08-.13.13-.13.13,0,0-.04,0-.05-.06-.01-.08.05-.09.05-.09,0,0,.05-.02.09-.02ZM12.52,3.29v.1s-.03.14-.11.18c-.1.05-.33.12-.35.09,0-.02.31-.12.45-.36h0s.01,0,.01,0ZM13.97,3.33h.05s.03,0,.06.03c.03.03.11.12.12.16.01.04-.14,0-.22-.02-.06,0-.16-.09-.16-.09,0,0-.02-.03.05-.07.03-.02.06-.03.1-.03v.02ZM12.67,3.57v.08s-.05.14-.14.17c-.11.03-.51.04-.52,0-.01-.03.47-.08.65-.26h.01ZM14.01,3.76h.06s.03,0,.06.03c.03.03.12.13.13.18.01.07-.15,0-.23-.02-.07-.02-.13-.05-.18-.1,0,0-.02-.03.04-.07.03-.02.07-.03.11-.03h0ZM14.01,4.29h.06s.03.01.06.03c.03.03.12.13.13.18.01.05-.15-.01-.23-.03-.07-.02-.13-.05-.18-.1,0,0-.02-.02.04-.06.03-.02.07-.03.11-.03h0ZM12.44,4.81c.08.02,0,.63-.15.91-.21.34-.46.66-.74.94-.15.11-.05-.09-.05-.09,0,0,.42-.58.61-.99.14-.29.23-.68.29-.75.02-.02.03-.03.05-.03h-.01ZM13.99,4.81s.05,0,.07.01c0,0,.04.01.07.04.03.03.14.15.15.2,0,.06-.18-.02-.27-.03-.07-.02-.14-.06-.2-.11,0,0-.02-.04.05-.09.04-.02.08-.03.12-.03h.01ZM13.92,5.33h.06s.03.01.06.03c.03.03.12.13.13.18.01.05-.15-.01-.23-.02-.07-.02-.13-.05-.18-.1,0,0-.02-.03.04-.08.03-.02.07-.03.11-.03v.02ZM13.89,5.8h.05l.06.03s.08.09.11.15c0,.04-.13-.01-.19-.02-.06-.01-.15-.07-.15-.07,0,0-.02-.03.04-.06.03-.01.06-.02.09-.02h-.01ZM13.83,6.26h.05l.04.02s.08.09.08.12c0,.04-.12-.01-.16-.01-.04-.01-.08-.03-.12-.06,0,0-.01-.02.03-.05.02-.02.05-.02.07-.02h.01ZM13.74,6.68h.04l.04.02s.07.07.07.11c-.01.02-.11-.02-.15-.02-.04-.01-.07-.03-.11-.05,0,0-.01-.02.03-.04.02,0,.05-.01.07-.01h.01ZM6.13,6.89c.12.02.14.03.13.09.01.05-.14.05-.14.05,0,0-.22.04-.18-.03.04-.08.19-.11.19-.11ZM13.64,7.01h.04l.04.02s.07.07.07.11c-.01.03-.11-.01-.15-.02-.04-.01-.11-.05-.11-.05,0,0-.01-.02.03-.04.02,0,.04-.01.07-.01h.01ZM13.52,7.39h.03l.03.02s.06.06.06.09-.08,0-.12-.01c-.03-.01-.08-.04-.08-.04,0,0-.01-.02.02-.04.02,0,.04-.01.05-.01h0ZM10.46,7.51c.06,0,.12,0,.18.01.3.04.59.31.55.34s-.11,0-.13,0l-.11-.05-.16-.04s-.29-.07-.5-.05c-.22.01-.41.09-.41.09,0,0-.09.04-.11-.01-.01-.06.03-.1.03-.1v-.02s.26-.16.66-.16h0ZM5.35,7.64h.01l.02.02s.03.11-.06.21c-.1.11-.4.68-.46.58-.07-.07.29-.61.37-.72.06-.09.11-.1.13-.1h-.01ZM13.4,7.75h.06l.06.09s-.08.01-.11,0c-.03,0-.08-.04-.08-.04,0,0-.01-.01.02-.03.01,0,.03-.01.05-.01h0ZM6.62,8.06s.03,0,.04.01l.05.02.03.03.11.11c.04.06.16.28.14.3-.1.1-.13-.03-.27-.19-.14-.15-.11-.28-.11-.28h0ZM13.25,8.11h.05l.05.09s-.06-.01-.1-.01-.07-.04-.07-.04c0,0-.02-.01.01-.02.02,0,.03-.01.05-.01h0ZM8.4,8.5v.06s-.19.25-.3.4c-.14.2-.31.51-.34.48s.15-.37.25-.56c.11-.23.27-.34.33-.36.02-.01.04-.02.07-.02h0ZM5.35,9.3l.02.02s.01.04-.06.16-.13.12-.13.12c0-.01-.02-.05.04-.18s.13-.12.13-.12ZM4.03,9.72s.01,0,.02.01c.03.04-.06.24-.06.24,0,0-.1.2-.13.12-.03-.07.03-.21.03-.21.08-.07.11-.16.14-.15h0ZM12.6,10c.1.01.09.19.09.24.03.31.16.62.4,1,.33.53.87.93.85.97-.05.05-.59-.37-.78-.6-.32-.39-.56-.81-.63-1.33-.02-.12-.02-.29.09-.27h-.02ZM6.27,10.15l.12.03.24.1s.13.05.23.11l.23.15.07.06s.07.14-.08.11c-.15-.03-.47-.28-.6-.34s-.34-.09-.25-.17c.01-.01.02-.03.04-.03h0v-.02ZM5.13,10.74h.02c.07,0,.07.05.07.05v.03s0,.19.01.34c0,.04.12.53.12.53,0,0,.02.04-.02.04-.03,0-.06-.06-.06-.06,0,0-.09-.13-.12-.22-.03-.09-.04-.23-.04-.23,0,0-.02-.18-.02-.25.01-.09.01-.16.02-.2,0-.02.02-.03.03-.03h-.01ZM3.64,11h.03c.06.01.03.13.03.18s-.06.15-.08.15-.07-.1-.05-.15c0-.05.02-.17.08-.18h0ZM9.08,11.89c.12-.01.48.5.99,1.05.58.62,1.26,1.22,1.28,1.29.04.13-.47-.28-.75-.49-.74-.57-1.64-1.73-1.53-1.84,0,0,.01,0,.02-.01h-.01ZM19.36,12.41l.04.02.02.03s.13.53.12.85c-.02.45-.04.77-.31,1.12-.32.42-.88.85-.76.51.08-.2.57-.46.76-1.03.11-.34.13-.67.13-.67l-.02-.65s-.01-.05-.01-.13c.01-.03.03-.04.04-.05h-.01ZM13.88,13.53c.1.01.15.07.03.16-.14.1-.19.09-.28.18-.1.12-.13.52-.22.36-.1-.16-.03-.39.13-.56.09-.1.22-.15.35-.14h-.01ZM6.08,13.97l.15.07c.05.01.11.11.11.11,0,0,.02.08-.04.1-.06.03-.11-.03-.11-.03,0,0-.14-.19-.12-.24h0ZM16.39,15.5s.07.02.12.13-.09.87-.26.76c-.1-.06.05-.26.05-.42,0-.13-.02-.23-.02-.33s.11-.14.11-.14ZM13.2,16.82s.05.06,0,.17c-.07.16-.1.22-.11.37-.02.16.08.61-.07.44-.05-.08-.11-.43-.06-.6.05-.24.19-.38.25-.37h-.01ZM12.38,18.94h.05c.02.05-.02.1-.03.11-.04.02-.08.04-.13.04-.06.01-.03-.04-.03-.04,0,0,.04-.07.1-.1.01,0,.03-.01.04-.01ZM9.5,19.17c.09,0,.09.04.09.04,0,.03-.03.04-.12.03-.07-.01-.08-.03-.07-.04,0-.01.02-.03.11-.03h-.01ZM10.16,19.2h.02s.36.06.6.07c.17.01.26.02.43.01.1,0,.04-.01.19-.01.05-.01.02.07-.02.08-.16.04-.23.02-.36.03-.12.01-.17.02-.29.02-.2,0-.22.01-.51-.07-.05-.02-.12-.09-.1-.11,0-.01.02-.02.04-.02ZM7.72,19.27c.13,0,.09.05.09.05,0,0,0,.04-.08.09s-.11.02-.12.02-.09-.04-.09-.09c.01-.04.13-.07.13-.07h.07ZM14.48,20.75h.03l.02.04s-.09.13-.13.13c-.05-.01-.03-.08-.03-.08,0,0-.02-.07.04-.09.02,0,.05-.01.07-.01h0ZM13.68,21.06h.02v.04s-.27.34-.46.53c-.18.17-.49.41-.49.41h-.04v-.08l.03-.03.02-.03.02-.03.06-.08.15-.14.15-.14.24-.24s.09-.09.12-.12c.03-.02.05-.04.09-.06.03-.02.07-.04.1-.04h-.01ZM12.13,22.36s.04,0,.05.01c.03.08-.02.1-.02.1l-.1.08s-.07.05-.1.02c-.02-.03.01-.08.01-.09s.06-.08.12-.11c.01,0,.02-.01.03-.01h.01ZM11.08,23.35l.08.06s.02.03.02.07c0,.03-.1.02-.15.07-.06.04.06.17-.14.16-.12-.01-.05-.12-.04-.13l.07-.11c.05-.08.09-.09.14-.12,0,0,.01,0,.02,0Z"/>
</svg>