<?xml version="1.0" encoding="UTF-8"?>
<svg id="Layer_1" xmlns="http://www.w3.org/2000/svg" version="1.1" viewBox="0 0 24 24">
  <!-- Generator: Adobe Illustrator 29.5.0, SVG Export Plug-In . SVG Version: 2.1.0 Build 137)  -->
  <path d="M22.19,13.83s-.23.11-.29.14c-.41.18-.77.15-1.18-.09-.29-.17-.57-.55-.67-.68-.08-.11-.19-.24-.33-.37-.27-.24-.64-.4-1.27-.39-.05,0-.1-.01-.15-.04-.64-.34-1.75-.75-2.8-.7-.21.02-.24-.14-.31-.31-.11-.33-.27-.65-.46-.94-.17-.24-.24-.24-.38-.28-.15-.04-.32-.06-.42-.24-.01-.02-.06-.12,0-.18.14-.16.53-.39-.06-.72-.36-.2-.2-.33-.14-.36.12-.06.26-.07.39-.04.22.05.42.18.56.36.19.22.83,1.26,1.22,2.05,0,.01.01.07.09.07.11.01.3.01.33.01.06,0,.06-.04.05-.06-.55-1.84-1.19-4.12-2.3-5.71-.02-.05,0-.09.07-.09.99.1,1.28,1.51,1.86,2.43.74,1.19,1.18.72,1.25-.08.05-.56-.1-1.27-.49-1.67-.09-.11-.26-.26-.33-.34-.02-.03-.03-.08.04-.1h.12c.46.03,1.09.4,1.36.82.55.85.51,1.3.43,1.6-.13.51-.37.81-.07,1.62.59,1.6.43,1.27.1,2.28-.03.08.02.13.08.13.77-.07,1,.1,1.17.19.02.01.03.02.04.02.03-.01.04-.05.04-.1.06-.43-.03-.62-.12-.87-.06-.15-.12-.32-.15-.48-.03-.17,0-.34.07-.49.13-.27.16-.59.08-.88-.19-.86-.9-2.26-1.34-3.08-.13-.24-.26-.49-.39-.73-.03-.06-.02-.13,0-.18l.05-.14c.11-.27.16-.48.2-.72.1-.77-.1-1.31-.65-1.77-.52-.42-1.43-.61-2.65-.54l-.26.02c-1.15.07-2.45.14-3.43.06-.95-.08-1.5-.23-1.7-.46-.06-.07-.09-.17-.08-.26.03-.23.16-.43.34-.56.17-.13.37-.2.51-.18.25,0,.54.16.86.32.29.15.62.32,1,.43.31.09.63.13.95.12.29,0,.58-.07.85-.18.08-.03.16-.08.23-.13.02-.02.03-.05,0-.08-.01-.02-.03-.02-.09-.02-.34,0-.67-.04-1-.12-.26-.06-.28-.12-.28-.15,0-.06.14-.11.29-.11.75-.03,1.33,0,1.71.03.16.02.32.02.49.02.02,0,.03-.02.03-.02,0,0,0-.03-.01-.04-.26-.22-1.13-.55-2.11-.72-1.58-.28-2.64-.05-3.25.19-.25.1-.49.24-.71.4-.31.24-.48.5-.51.77-.04.36.22.84,1.72,1.01,1.59.18,3.07.16,4.37.14h.4c.83-.02,1.53.18,1.83.51.29.34.39.8.28,1.23-.03.11-.08.22-.14.32-.09.13-.2.17-.39.12-.61-.16-1.7-.52-2.23-.7-.47-.16-.84-.28-1.16-.36-.94-.23-1.23-.08-1.86.32-.15.1-.31.2-.48.32-.26.18-.55.38-.94.62-.28.17-.57.34-.87.49-.33.18-.67.37-1.01.57-1.08.63-1.25,1.48-1.45,2.46-.14.7-.3,1.48-.83,2.28-.06.09-.52.65-.62.8-.37.59-.56,1.09-.48,1.94.06.64-.16,1.19-.37,1.72-.16.42-.32.82-.35,1.24-.02.26-.01.51,0,.75.01.39.02.79-.1,1.13-.09.26-.33.52-.42.77-.13.39-.2.8-.2,1.21,0,.36-.27.62-.55.9-.25.25-.51.5-.6.84,0,.04-.02.08-.04.1-.02.04-.06.06-.11.1-.15.1-.26.24-.34.41-.1.25-.09.53.02.78.02.03.06.1.12.1.04,0,.09-.02.13-.07,0,0,.28-.32.38-.41.03-.03.07-.03.11,0,.03.02.04.06.02.1,0,.02-.18.32-.27.57h0s-.03.09,0,.12c.02.04.08.06.17.06h.12c.51,0,.78-.14.91-.25.04-.04.06-.08.08-.12l.02-.04c.1-.27.17-.59.18-.82,0-.1.03-.13.1-.2.27-.27.27-.63.27-.97,0-.32,0-.65.21-.91.57-.64.87-1.38,1.15-2.1.3-.74.6-1.51,1.21-2.15.15-.16.3-.24.4-.23.05,0,.09.04.12.09.13.24.09.56.05.87-.04.35-.08.69.1.9.13.16.16.33.1.49-.08.26-.32,1.03-.9,1.38-.07.05-.15.11-.22.16-.03.03-.05.06-.06.09-.06.13-.17.23-.31.26-.21.05-.4.17-.54.35-.22.33-.31.73-.26,1.12.01.06.03.14.09.21.03.05.07.08.12.08.04,0,.07,0,.1-.03.05-.04.09-.08.13-.13.08-.09.18-.2.3-.3.04-.03.08-.02.1,0s.03.04.02.06c-.02.06-.06.12-.09.17-.06.09-.13.21-.19.35-.02.03-.02.06,0,.08.02.04.06.06.07.06.37.12.92-.02,1.23-.31.16-.15.24-.37.23-.59,0-.09.04-.17.1-.23.22-.19.31-.48.4-.78l.07-.22c.1-.32.29-.6.54-.81.41-.38.59-.74.71-.96.12-.24.14-.37.23-.51.17-.27.74-.32.95-.19.09.05.11.12.06.21-.03.06-.33.55-.48.88-.07.16-.23.23-.32.28-.57.33-.67.96-.69,1.21,0,.08,0,.19.04.25.02.03.05.05.09.06.04,0,.08,0,.11-.03s.34-.34.38-.37c.05-.04.1-.04.12-.02.02.02.03.06,0,.11-.04.06-.25.38-.23.45.04.12.16.12.28.12.97-.08,1.32-.77,1.32-.77.02-.04.05-.09.04-.24-.03-.26-.09-1.16.43-1.72.15-.17.25-.06.28.02.06.14.16.38.21.5.11.25.19.44.32.69.22.42.55.48.95.43.53-.07.89-.02,1.24.01.3.03.47.05.69-.16.12-.11.35-.31.5-.53.1-.14.13-.23.1-.44-.07-1.08.49-2.02,1.5-2.51.15-.06.32-.04.42.1.23.34.76,1.2.76,1.93,0,.08-.03.16-.06.23-.07.2-.16.45,0,.79.01.29-.1.52-.19.73-.14.29-.25.52.13.74.14.08.29.14.45.18.01,0,.03,0,.04-.01.01,0,.02-.02.02-.03.01-.09.02-.38.04-.45,0-.03.02-.06.05-.06s.06.02.07.05c.03.07.11.36.13.4.02.04.04.07.07.08.15.04.36-.22.43-.35.13-.27.08-.68-.14-1.04-.03-.05-.04-.1-.04-.16.06-.22.05-.45-.04-.66-.04-.11-.07-.23-.09-.34-.06-.51.25-2.12.28-2.28.05-.3.1-.51.12-.73.01-.23-.06-.45-.22-.62-.14-.15-.3-.28-.46-.41-.13-.1-.26-.21-.38-.33-.13-.14-.21-.32-.23-.51,0-.02,0-.03.01-.04h.03c.24.02.43.18.68.38.22.18.47.38.81.54.68.3,1.33.26,1.98-.14.28-.2.36-.37.38-.39.02-.03,0-.12-.09-.07h.04ZM7.05,11.12c.04-.32.27-.65.37-1.04.15-.44.19-1.22.27-1.84.04-.31.16-.44.38-.46.15-.01.3.11.38.55.27,1.77.8,2.02,1.11,2.49,0,0,.01.02.02.03.08.15.1.28-.02.38-.07.06-.32.15-.73-.1-.5-.3-.57-.62-1.39.04,0,0-.11.08-.21.11-.09.02-.19-.01-.17-.15h0ZM11.35,17.63s-.06,0-.11-.02c-.33-.21-1.23-.37-1.99-.07-.79.31-1.5.76-1.55-.02-.01-.69.14-.99-.1-1.4l-.02-.03s0-.04.01-.04c1.1-.09,1.4-.43,1.47-.55.01-.03,0-.06-.03-.06-.25-.03-1.52-.07-2.02,0-.89.13-1.49,1.47-1.61,1.6-.13.15-.3.03-.3-.1,0-.22.13-1.31.22-1.69.14-.6.33-1.04.92-1.13.41-.06,1.41-.17,1.34-.44-.05-.16-.08-.33-.09-.5,0-.13.07-.16.2-.13.1.02.23.08.4.12,1.26.3,1.91.06,2.66-.27l.32-.14c.08-.04.18-.01.23.07.03.05.03.1,0,.15-.04.09-.09.13-.21.24-.25.24-1.17,1-.62,2.28.43,1,.56,1.26.87,1.94.05.11.06.16.02.18h-.01ZM13.7,19.37c-.06.1-.16.16-.34.16-.23,0-.39-.07-.48-.17-.17-.19-.23-.44-.17-.69.03-.12.1-.2.18-.22.03-.01.05,0,.07.01.03.05.16.25.18.29.04.05.09.09.14.11.09.04.21.07.27.1.19.08.23.28.15.41ZM17.34,15.83s-.05.05-.08.06c-1.14.43-2.05,1.6-1.89,3,0,.09-.03.18-.09.25,0,0-.24.24-.39.35-.05.04-.11.06-.24.06l-.51-.03c-.08-.01-.05-.08-.04-.1,0-.02.01-.03.02-.05.04-.21.01-.5-.28-.61-.04-.02-.02-.06-.01-.08.13-.31.29-.7.41-1.24.09-.31.02-.65-.18-.91l-.18-.24c-.05-.06-.04-.12.03-.14l.25-.07c.06-.02.06-.11,0-.13l-.13-.04c-.11-.05-.19-.13-.26-.23-.05-.07-.08-.14-.1-.23v-.07s-.07-.04-.1-.01c-.21.2-.25.51-.11.75.21.34.2.31.38.57.06.08.1.15.12.24.03.21,0,.42-.06.63l-.21.63c-.13.28-.27.21-.34.16-.1-.07-.2-.24-.25-.43,0,0-.14-.53-.14-1.23,0-.08-.07-.22-.25-.1l-.49.4c-.07.04-.19.02-.16-.14,0,0,.35-1.57.73-2.45.28-.72-.03-1.13-.41-1.57-.62-.79-.76-1.85.68-1.27.39.18.52-.05,1-.09.34-.03.45.11.48.17.02.04.03.09.04.14,0,.01,0,.02-.02.02-.8.05-1.76.72-1.02,1.77.73,1.03,2.73,1.37,3.63.39.01-.01.01-.04,0-.06-.01-.01-.03-.01-.05,0-.18.07-.37.13-.56.16-.43.07-1.33.02-1.76-.47-.25-.28-.24-.6.17-.65.23-.02.34.02.44.03.26,0,.31-.26.26-.38-.07-.14-.17-.27-.29-.36-.13-.09-.06-.19.03-.19.83.05,1.62.19,1.92,1.19.01.04.03.16.06.21.06.1.17.17.3.27.3.26.57.73-.34,2.15v-.03ZM18.41,15.21c.15-.3.34-.1.44.23.12.43.14,1.11.08,1.46-.06.46-.28.37-.4.2-.18-.26-.38-.6-.52-.84,0,0,0-.01-.01-.02-.06-.13-.07-.24,0-.34.07-.11.34-.56.41-.7h0Z"/>
</svg>