<?xml version="1.0" encoding="UTF-8"?>
<svg id="Layer_1" xmlns="http://www.w3.org/2000/svg" version="1.1" viewBox="0 0 550 550">
  <!-- Generator: Adobe Illustrator 29.5.0, SVG Export Plug-In . SVG Version: 2.1.0 Build 137)  -->
  <g id="Layer_51">
    <path d="M286,123.2c0-3-.91-3.1-1.15-.11l-9.56,142.59,9.52,5.57,1.19-148.05Z"/>
    <path d="M241.35,299l40.16-22.25-9.12-5.07-32.17,26.32c-1.79,1.54-.99,2.18,1.13,1h0Z"/>
    <path d="M286.69,46.83c-127.35-.06-230.64,102.17-230.64,228.17s103.22,228.13,230.64,228.17c127.42.04,230.73-102.17,230.73-228.17S414.2,46.83,286.69,46.83ZM286.69,494.48c-86.67,0-154.68-45.05-187.06-107l5-1.83c8.42,13.72,19.41,25.79,34.18,42.1,18.21,20,75.78,58.63,147.83,58.63,73.94.27,142.75-37.76,181.86-100.52,2.91-.82,3.84-2.08,2.87-4.61,17.32-30.51,29.08-68.84,29.08-106.29,0-23.59-3.46-42.78-8.95-59.93-3.4-10.56-7.54-20.88-12.38-30.86-.55-.88-.83-1.9-.81-2.94.87.66,1.57,1.52,2.05,2.5,3.35,6.11,10.85,21.08,14.37,30.82,4.75,13,13.22,31,13.22,60.41.05,120.04-98.3,219.59-221.26,219.52h0ZM102,382.18l161.53-116.1-13.82-7.88-143.91,119.62c-16.16-29.29-27.39-66.89-27.39-102.65,0-113.25,90.16-204.93,204.32-205.63l-29.45,183.15,13.76,8,18.5-191.12c.35-2.41,2-2.41,2,0l1.09,201.54,32.78-19.24-31.41-182.37c112.2,3,205.16,93.49,205.16,205.31,0,36.06-10.9,73.72-27.4,103.19l-143.76-119.73-13.84,7.9,154.52,112.05c3.71,2.64,2.57,3.84-1.38,1.64l-173.51-100.06v37.5l173.91,66.44c-36.45,59.44-102.19,97.46-177.46,97.46s-140.11-38-176.56-97.53l174.22-66.49v-37.49l-180.42,104.21c-4.28,2.36-5.42,1.04-1.48-1.72ZM97.56,384.4c-7.63-15.81-15.67-38.09-19-55.72-.16-.93-.12-1.88.12-2.79.56.84.98,1.75,1.27,2.71,5.23,16.18,9.8,30.73,21.73,52.59l-4.12,3.21h0ZM507.62,236.29c-.55-.8-.98-1.67-1.26-2.6-16.86-52-31.22-72.43-58.9-102.81-36.47-40-96-70.93-159.36-71-121.1,0-219.34,98.26-219.34,219.34,0,36,7.85,67.09,14.16,82.71,7.4,18.11,20.2,42.5,20.84,43.6.45.9.68,1.89.68,2.9-.83-.66-1.53-1.48-2.07-2.4-3.67-5.33-18.71-32.42-23.37-44.26-10.24-25.77-17.76-53.88-17.76-83.38,0-124.8,101-226,225.89-226,111.56,0,201.5,77.5,220.49,181.23.19.88.19,1.79,0,2.67h0Z"/>
    <path d="M420.56,350.93l-118.9-79.68-9.78,5.59,128.11,75c2.28,1.31,2.76.5.57-.91Z"/>
  </g>
</svg>