<?xml version="1.0" encoding="UTF-8"?>
<svg id="Layer_1" xmlns="http://www.w3.org/2000/svg" version="1.1" viewBox="0 0 24 24">
  <!-- Generator: Adobe Illustrator 29.5.0, SVG Export Plug-In . SVG Version: 2.1.0 Build 137)  -->
  <path d="M11.97,2.36c-.6,0-1.21.03-1.81.08-1.27.11-2.53.31-3.77.61-.9.23-1.78.51-2.63.86l-.05.02s.11,6.42.19,9.6c.02.94.2,1.86.51,2.75.36,1,.84,1.96,1.44,2.85.62.91,1.37,1.74,2.23,2.44.34.28.69.54,1.06.77.58.35,1.18.66,1.81.91.2.09.39.17.55.22.17.06.35.12.52.16.18-.04.35-.1.52-.16.16-.05.35-.14.55-.22.62-.26,1.22-.57,1.81-.91.37-.23.73-.5,1.06-.77.86-.7,1.61-1.53,2.23-2.44.59-.89,1.07-1.84,1.44-2.85.31-.89.49-1.81.51-2.75.08-3.18.19-9.6.19-9.6-.02,0-.04-.02-.05-.03-.86-.35-1.74-.63-2.64-.86-1.24-.3-2.5-.51-3.77-.6-.6-.05-1.21-.08-1.81-.08h-.05,0ZM11.97,2.68h.05c.6,0,1.14.03,1.74.08,1.22.1,2.43.3,3.62.59.86.22,1.71.5,2.54.83.02,0,.04.02.05.03l-.04,2.01s0,0-.02,0c-.82-.34-1.68-.61-2.54-.83-1.19-.29-2.4-.49-3.63-.59-.6-.05-1.14-.09-1.74-.1h-.05c-.6,0-1.14.04-1.75.1-1.22.11-2.43.3-3.62.59-.86.22-1.71.5-2.54.83h-.02s-.04-2.01-.04-2.01l.05-.02c.82-.34,1.68-.61,2.54-.83,1.19-.29,2.4-.49,3.63-.59.6-.05,1.14-.07,1.74-.08,0,0,0,0,0,0ZM12.23,2.88h-.8c-.11,0-.26.1-.26.2v.58c0,.12.14.21.27.21.41,0,.77,0,1.17.03.03,0,.05.02.05.05v.12s-.02.04-.04.04h0c-.46,0-.95-.02-1.41.02-.31.02-.32.03-.03.02l-.02.34v.03c.55-.04,1.11-.04,1.67,0,.13,0,.25-.1.27-.23v-.56c0-.12-.13-.2-.23-.2-.39-.03-.83,0-1.23-.02-.03,0-.04-.02-.04-.04h0v-.12s.03-.04.05-.04c.39-.02.98,0,1.38.02.03,0,.05-.04.05-.06v-.28s-.03-.06-.05-.06h0c-.27,0-.53-.02-.8-.03h-.03ZM10.56,2.93c-.37,0-1.19.11-1.65.17v1.62l.42-.05h0v-.46l.84-.09c.07,0,.16.04.23.15.05.09.09.2.1.3l.42-.04h.03c0-.22-.11-.43-.27-.59.12-.04.18-.16.18-.27,0-.17,0-.34-.02-.5-.03-.12-.14-.21-.27-.22h0v-.03h0ZM13.75,2.95c-.18,0-.34.12-.36.29v1.06c0,.12.08.23.2.26.54.05,1.07.1,1.68.19,0,0,.03,0,.03-.02v-.37s-.02-.03-.03-.03c-.4-.05-.93-.12-1.41-.17-.03,0-.05-.04-.05-.06v-.72s.04-.04.07-.04c.47.04.94.12,1.4.18,0,0,.04,0,.04-.02v-.34s0-.03-.02-.03c-.51-.07-1.04-.13-1.55-.18h0ZM15.5,3.16s-.02,0-.02.02c0,.24-.04,1.29-.04,1.57v.03c.14.03.29.04.4.06,0,0,.03,0,.03-.02v-.57h.02c.33.06.66.12.98.2,0,0,.04,0,.04.03,0,.2,0,.35,0,.55,0,.02,0,.03.03.04.13.03.25.06.37.09.08.02.09.02.04,0,.02-.4.03-1.04.04-1.58,0,0,0-.02,0-.02-.13-.03-.27-.06-.4-.1,0,0-.02.02-.02.03,0,.2,0,.38-.03.58h0c-.33-.07-.67-.14-1-.2,0,0,0-.02,0-.03v-.58s0-.03-.02-.03c-.12-.02-.25-.04-.37-.06h0l-.02.02v-.02ZM8.39,3.18h-.04c-.48.08-.97.18-1.45.28-.08.03-.15.07-.2.12-.05.04-.08.12-.09.19v.99c0,.09.04.17.1.24.04.06.11.1.18.1.48-.11.97-.2,1.45-.28.09-.02.18-.07.24-.15.05-.05.08-.12.09-.2v-1.03c0-.07-.04-.13-.1-.18-.04-.04-.11-.07-.17-.07h0ZM10.31,3.36s.07.03.07.06v.17c0,.07-.05.13-.12.15l-.94.09h0v-.36h0l.98-.1h0ZM8.07,3.61s.04,0,.07.02c.04.02.05.05.04.1v.62s-.03.07-.05.1c-.04.02-.07.04-.11.04-.29.06-.59.12-.89.17-.03,0-.05,0-.08-.02-.02-.03-.03-.05-.03-.09v-.65s0-.06.04-.09c.03-.03.07-.04.11-.05.26-.04.59-.12.86-.15,0,0,.04,0,.04,0ZM17.66,3.61h0v.02c0,.54-.03,1.04-.03,1.57,0,0,0,.03.02.03.65.18,1.29.38,1.92.62t.03-.02c0-.12,0-.25,0-.37,0,0,0-.03-.02-.03-.48-.19-.98-.35-1.47-.48,0,0-.02,0-.02-.03v-.16h.03c.5.14.99.3,1.48.48.33.12.33.11,0-.02v-.42s0-.02-.02-.03c-.48-.18-.97-.33-1.45-.46,0,0-.02,0-.02-.02v-.17h.02c.5.12,1.05.32,1.43.46.04,0,.05,0,.05-.03v-.28s0-.04-.02-.04c-.63-.24-1.27-.45-1.92-.63,0,0,0,0,0,0ZM6.16,3.67h-.07c-.58.15-1.15.36-1.74.58-.02,0-.03.03-.03.04v1.6s.42-.16.51-.19v-.52l1.44-.44s.09-.04.12-.09c.04-.04.04-.09.04-.14l-.02-.6c0-.07-.04-.13-.11-.18-.05-.04-.12-.06-.18-.06h.02ZM5.9,4.11s.06.03.06.05c0,.07,0,.15,0,.22,0,.04-.06.09-.1.1l-1.05.35h-.03v-.32s.02-.03.04-.04c.35-.14.7-.26,1.06-.35h0ZM12.08,4.98c.58,0,1.11.03,1.68.08,1.22.1,2.43.3,3.62.59.86.22,1.71.5,2.54.83h0v.4h-7.85s0-1.9,0-1.9ZM11.8,4.98v4.1h-2.62s-.02-.02.02-.04c.19-.14.41-.23.64-.27.02,0,.03,0,0-.04-.21-.21-.53-.29-.82-.19-.26.08-.46.28-.55.53,0,.02-.02.03-.04.03-.14,0-.27,0-.42,0-.03,0-.04-.03-.03-.05.04-.18.15-.34.3-.43.14-.09.29-.14.46-.16.02,0,.03-.03.03-.04h0s-.06-.07-.09-.09c-.13-.07-.29-.1-.44-.07-.45.04-.81.41-.84.85,0,.05,0,.06-.04.08-.1.04-.28.05-.38.08-.02,0-.04-.04-.04-.05.04-.17.11-.33.21-.46.08-.11.19-.2.3-.26.03,0,.04-.04.03-.05-.22-.2-.68,0-.87.21-.18.23-.26.51-.25.81,0,.02,0,.04,0,.04-.12.05-.23.1-.35.13,0,0,0-.03-.02-.04-.04-.21,0-.43.13-.6.05-.09.12-.16.21-.21,0,0,0-.02,0-.03-.1-.13-.51-.04-.63.08-.28.27-.27.54-.27.98,0,.02-.03.1-.05.11-.05.03-.11.05-.16.06-.02,0-.02,0-.03,0-.05-.19-.25-.28-.43-.23-.03,0-.05.02-.07.04-.15.1-.19.29-.1.43,0,0,.02.03.03.04.02.02.02.03,0,.04-.2.06-.31.27-.25.46h0c.04.11.14.18.27.19.12,0,.23-.03.33-.1.02,0,.04,0,.05,0h0c.1.16.31.21.47.11.14-.1.2-.24.1-.5,0-.02.02-.04.03-.04.85-.49,1.81-.75,2.78-.78.14,0,.27.04.41.09h.02v.83s-.02.02-.03.02c-.19.12-.32.28-.38.49-.04.14-.05.14-.03.02-.17.02-.35.04-.52.05,0,0-.03-.02-.03-.03.12-.33.35-.61.64-.81.02-.02.02-.04,0-.06-.04-.04-.09-.07-.15-.08-.3-.03-.59.1-.79.32-.18.22-.27.5-.27.78,0,.02,0,.05-.02.05-.11.04-.23.06-.35.1,0,0-.03,0-.04-.03-.06-.36.12-.73.43-.91.04-.04-.04-.09-.09-.09-.34-.02-.66.17-.81.47-.08.22-.09.47-.03.7,0,.02.02.05,0,.06-.07.02-.23.08-.28.1-.02,0-.03,0-.04-.03-.04-.14-.04-.29-.02-.43.04-.16.12-.31.24-.43,0,0,0-.03,0-.04-.11-.04-.22-.05-.34-.02-.19.04-.34.17-.43.34-.14.27-.11.51.04.9,0,.02.02.05,0,.06l-.12.07s-.03,0-.04-.02c-.04-.07-.11-.18-.19-.21-.12-.06-.27-.05-.38.03-.11.1-.15.25-.11.38.03.04.05.09.09.13v.04c-.05.04-.12.08-.17.12-.1.12-.1.29,0,.42.09.12.26.18.4.11.07-.03.14-.07.2-.11.03-.02.04-.04.06-.02.05.06.12.11.2.13.11.03.22,0,.31-.05.12-.05.18-.18.15-.3-.03-.09-.07-.17-.12-.24-.04-.05-.04-.06,0-.04.46-.27.96-.49,1.47-.64.49-.14.99-.2,1.5-.19h.04v1.73h-4.61c-.04-1.89-.11-4.89-.14-6.95h0c.82-.34,1.68-.61,2.54-.83,1.19-.29,2.4-.49,3.62-.59.52-.04,1.05-.07,1.57-.08h0l-.03.04h0ZM9.06,5.71c-.22,0-.43.08-.61.2-.26.17-.41.68-.43.87,0,.02-.02.03-.04.04-.2.03-.4.06-.6.11,0,0,0,0,0-.02.02-.2.1-.38.23-.52.13-.13.28-.25.43-.35,0,0,0-.04,0-.04-.23-.09-.48-.09-.71,0-.32.13-.55.43-.6.77-.02.12-.03.24-.03.36,0,.02-.03.02-.04.02-.22.07-.44.15-.63.21,0,0-.04,0-.04,0,0-.2.04-.41.16-.58.11-.18.3-.27.45-.42,0,0,.03-.04,0-.04-.36-.14-.71,0-.99.34-.2.29-.27.66-.18.99,0,.04,0,.06-.02.07-.06.03-.13.05-.2.08,0,0-.03,0-.03-.02h0c-.08-.27-.39-.21-.53-.13-.15.09-.2.28-.12.43v.04h0c-.2.1-.27.33-.19.52h0c.08.12.24.18.38.12.08-.03.15-.07.22-.12h.03c.12.16.33.2.49.08,0,0,0,0,.02,0,.1-.07.14-.09.18-.21,0-.1-.02-.2-.08-.27,0,0,0-.04,0-.04,1.15-.59,2.42-.92,3.72-.95.47.02.92.19,1.29.49,0,.02.04.03.05.03.02,0,.04-.03.04-.05.06-.22,0-.45-.18-.6-.15-.15-.34-.26-.54-.3,0,0-.02-.03,0-.04.09-.09.19-.15.3-.2.18-.03.35-.04.54-.04,0,0,.03,0,.03-.03-.07-.2-.26-.34-.47-.35-.21-.03-.43,0-.61.09-.2.11-.35.28-.44.49,0,0-.02.02-.03.02h-.52s-.03,0-.03,0c.03-.17.11-.34.23-.46.18-.15.38-.27.6-.35.02,0,.04-.04.03-.04-.04-.06-.11-.12-.18-.15-.1-.03-.2-.04-.31-.04h0s-.04.02-.04.02ZM12.08,7.12h7.85c0,.61-.02,1.27-.04,1.94h-7.81s0-1.94,0-1.94ZM9.06,9.28h5.92s.02,0,.02.02v4.56c0,.23-.05.46-.12.67-.24.64-.68,1.18-1.28,1.53-.47.27-1,.43-1.54.43-.74,0-1.45-.27-2-.76-.61-.51-.97-1.26-.98-2.05v-4.41s0,0,0,0ZM15.25,9.36h4.63c0,.57-.02,1.15-.03,1.71h-4.59v-1.71h0ZM9.2,9.42s0,0,0,.02v4.21c.02.76.35,1.48.94,1.98.53.46,1.21.73,1.91.74.52,0,1.03-.15,1.47-.42.57-.34.99-.85,1.21-1.47.08-.21.12-.43.12-.65v-4.38s0,0,0,0h-5.64s0-.02,0-.02ZM13.13,9.69h0s.06.03.08.06l.21.64v.06s-.03.02-.04.02c-.03,0-.04-.02-.05-.04l-.04-.11h-.29l-.04.12s-.04.04-.06.04c-.02,0-.03,0-.04-.03,0,0-.02-.03,0-.04l.2-.65s.04-.06.08-.07h0ZM12.45,9.7h.02c.09,0,.18.05.2.14,0,.02,0,.04-.03.05h0s-.05,0-.06-.02c-.03-.04-.07-.07-.12-.08-.05,0-.1.04-.12.09-.04.06-.04.12-.05.2,0,.07,0,.14.04.2.02.05.08.09.13.09.1-.03.16-.12.15-.21v-.04h-.12s-.05-.02-.05-.04h0s0-.04.05-.04h.17c.05,0,.06.04.06.08,0,.04,0,.09,0,.13-.02.08-.06.16-.13.21-.04.03-.09.04-.13.04-.09,0-.16-.05-.2-.13-.04-.09-.07-.18-.06-.27,0-.1.03-.19.07-.27.04-.07.1-.11.18-.11v-.02h0ZM9.8,9.7h0c.16,0,.21.1.21.13,0,.03-.05.07-.09.04-.04-.04-.09-.06-.14-.06-.06,0-.12.03-.13.09,0,.05.03.11.08.12h0c.08,0,.17.03.24.07h0c.05.04.08.1.07.16,0,.05-.02.12-.06.16-.06.05-.14.08-.22.08-.1,0-.19-.04-.23-.12,0,0,0-.05.03-.07.03,0,.05,0,.07.03.04.04.09.05.14.05.04,0,.1-.02.13-.04.03-.03.04-.07.02-.11-.04-.05-.11-.09-.17-.09-.05,0-.12-.03-.15-.06-.04-.04-.07-.11-.06-.18,0-.06.04-.12.09-.14.04-.04.11-.04.16-.04,0,0,.02,0,.02,0ZM11.26,9.7h.31s.05.03.05.05-.03.05-.05.05h-.1v.6s-.04.05-.06.04c-.03,0-.04-.03-.04-.04v-.6h-.11s-.05-.02-.05-.05c0-.03.02-.05.05-.05h0ZM11.76,9.7h.31s.05.03.05.05-.03.05-.05.05h-.1v.6s-.04.05-.06.04c-.03,0-.04-.03-.04-.04v-.6h-.1s-.05-.02-.05-.05c0-.03.02-.05.05-.05h0ZM14.19,9.7h.31s.05.03.05.05-.03.05-.05.05h-.1v.6s-.04.05-.06.04c-.03,0-.04-.03-.04-.04v-.6h-.11s-.05-.02-.05-.05c0-.03.02-.05.05-.05h0ZM13.59,9.7h.18c.06,0,.13.02.19.05.05.04.09.11.1.19,0,.06-.02.13-.06.18-.03.03-.06.05-.11.06h-.02l.14.19s.02.04.02.05c0,.03-.02.04-.05.04-.02,0-.04,0-.05-.03l-.17-.23h-.11v.2s-.02.05-.04.06h0s-.05-.02-.05-.05h0v-.65s0-.04.02-.04c0,0,.02-.02.04-.02h0ZM10.16,9.71h.32s.05.03.05.05-.03.05-.05.05h-.11v.6s-.04.05-.06.04c-.03,0-.04-.03-.04-.04v-.6h-.11s-.05-.03-.05-.05.03-.05.05-.05h0ZM10.68,9.71h0s.05.03.05.05h0v.42s0,.1.04.13c.03.04.07.05.12.05s.09-.02.11-.05c.03-.04.04-.09.03-.13v-.42h0s.04-.05.06-.04c.03,0,.04.03.04.04v.38c0,.08,0,.16-.05.23-.04.06-.12.1-.2.09-.08,0-.16-.03-.2-.09-.04-.07-.06-.15-.05-.23v-.38s.03-.05.05-.05c0,0,.02,0,.02,0ZM13.65,9.8v.29h.12c.09,0,.17-.05.18-.14v-.02s-.02-.07-.04-.1c-.04-.03-.07-.04-.12-.04h-.13ZM13.14,9.82l-.12.42h.25s-.12-.42-.12-.42ZM12.12,10.71s.02,0,.02,0c0,.02-.02.03-.04.04-.04.02-.06.04-.08.07-.03.04-.04.1-.04.14,0,.03.03.05.05.07.04.02.08.03.12.03.07,0,.13-.03.2-.05.08-.03.16-.04.25-.02.06,0,.12.02.17.05.02.02.02.04,0,.04s-.03,0-.04,0c-.04,0-.09,0-.12.03-.05.03-.08.04-.11.08,0,.02,0,.04,0,.06,0,.02.03.04.04.05,0,.04.04.08.05.11,0,0,.02.02.03.02.09.06.17.14.25.21.02.03.03.05.04.08,0,0,0,.03-.02.02,0,0-.02-.02-.04-.03-.02-.02-.03-.03-.04-.04-.05-.02-.11-.03-.16-.02-.03,0-.07.02-.04.04.04.03.09.06.12.11.07.08.1.18.1.27,0,0,0,0-.02,0-.03-.04-.05-.07-.09-.1-.05-.04-.12-.06-.19-.05-.02,0-.05,0-.05,0,.04.05.08.11.11.17.04.08.04.16.04.25,0,0-.02,0-.02,0-.02-.03-.04-.04-.07-.07-.03-.02-.05-.04-.08-.05-.06-.02-.12,0-.18.03-.05.03-.09.07-.12.12-.04.05-.05.12-.05.18,0,.08,0,.16.04.23s.1.12.17.14c.1.03.2.04.29.04.12,0,.25-.02.37-.02.12,0,.23,0,.35,0,.1.02.19.05.27.11.06.05.13.11.2.16h.03c.06-.05.1-.12.12-.2,0-.08,0-.15-.05-.22-.04-.08-.11-.16-.15-.24-.06-.08-.12-.17-.18-.27-.03-.06-.04-.13-.02-.2.02-.04.05-.09.1-.12,0,0,.02,0,.02.02,0,.04-.02.06,0,.1.02.04.04.09.08.12,0,0,.04,0,.05-.02.02-.04,0-.1.02-.13.02-.07.05-.14.1-.2.1-.07.2-.13.32-.18.03-.02.04-.09.08-.08s.02.09,0,.12c-.04.05-.08.09-.12.14-.05.07-.1.14-.14.22-.02.04-.03.08-.03.12,0,.04.04.07.06.08.02,0,.04,0,.06-.02.04-.03.06-.05.09-.09.02-.04,0-.08.03-.12h.04s.04.04.04.07c0,.04,0,.07,0,.1,0,0-.02.03-.03.04,0,0,0,.03-.02.04-.04.05-.07.11-.11.12,0,0-.02.02,0,.03.03.04.06.09.1.12.04.02.09.03.13,0,.03,0,.04-.03.07-.04,0,0,0,0,0,.02,0,.03,0,.05-.02.08s-.04.05-.06.07c-.04.03-.1.04-.15.04-.03,0-.06.02-.05.04,0,.03.02.05.04.08.02.02.04.04.07.04.04,0,.08,0,.11-.04.04-.03.05-.06.09-.1,0,0,.03,0,.03,0,0,.05-.02.1-.04.14-.03.04-.07.09-.12.12-.02,0-.03.03-.03.04,0,.03.02.05.04.07.02.03.04.04.07.04h.09s0,.02,0,.03c-.03.03-.06.05-.11.06-.04,0-.08.02-.12,0-.07-.02-.12-.04-.19-.06-.04-.02-.08-.02-.12,0-.04.02-.07.04-.1.07-.02.02-.03.04-.03.05,0,.05.02.12,0,.17-.02.07-.04.14-.07.2-.03.05-.06.1-.1.14s-.08.06-.11.12c0,.02-.02.04-.04.05-.04.06-.05.13-.05.2,0,.07.04.13.08.19l.13.21s0,.05,0,.07c0,.03-.02.05-.04.06-.18.1-.31.27-.37.47h0v.02s0,.03-.02.04c-.04.04-.11.08-.17.09-.05.02-.1.03-.14.04-.02,0-.03.02-.04.03-.02.03-.02.06,0,.09.02.02.03.04.03.06,0,.02,0,.03,0,.04,0,0-.02.02-.03.02-.06.04-.12.06-.2.08-.04,0-.08,0-.06-.05.03-.09.05-.18.09-.26.03-.05.07-.09.12-.12.06-.05.12-.1.19-.14.04-.03.08-.07.11-.12.05-.08.11-.17.17-.24.03-.04.04-.07.03-.12,0-.07-.06-.13-.12-.17-.03,0-.05-.02-.08-.03-.09-.03-.16-.08-.22-.16,0-.02-.04-.04-.05-.04-.05,0-.07.08-.07.12v.25s-.02.03-.04.03c-.18.06-.35.14-.5.25-.03.02-.04.04-.05.06l-.02.03c-.04.07-.12.1-.2.07,0,0-.03,0-.04,0-.02,0-.04,0-.05.02-.02,0-.03.02-.04.04,0,0,0,0,0,.02h0v.03l.02.05s0,.06-.02.08h0c-.06.03-.12.04-.18.05-.04,0-.06,0-.05-.05,0-.07.04-.14.06-.21,0-.03.03-.04.05-.05.06-.04.12-.07.16-.12.04-.04.1-.06.15-.06.08,0,.17-.04.23-.09.07-.05.14-.11.2-.17.1-.12.09-.29,0-.41l-.02-.03s-.03-.06-.04-.09c-.02-.03-.03-.06-.04-.09,0-.06.03-.12.03-.18,0,0,0-.02-.02-.02-.04-.02-.08-.03-.12-.03-.17.02-.33.02-.5,0-.12-.04-.24-.09-.35-.16-.04-.03-.08-.06-.12-.09h-.03c-.12.09-.27.12-.41.11h0c-.09-.02-.18-.04-.26-.07-.06-.03-.17-.06-.23-.02-.03.02-.02.05-.02.08,0,.09,0,.18,0,.27v.03h0s.02.02.04.02h0s.03.03.04.05c0,.02,0,.04.02.05v.21s.02.04.04.04h.05s.02,0,.03,0h0s.05.04.05.06c0,.07,0,.13-.04.2,0,.03-.04.04-.07.03h-.02s-.09-.07-.12-.11c-.03-.03-.04-.06-.04-.1,0-.03,0-.05-.03-.07,0,0-.02,0-.03-.02-.03,0-.04-.02-.06-.04-.04-.05-.06-.12-.04-.2.03-.19.02-.38-.04-.57,0-.03,0-.06,0-.1l.02-.04v-.02s.02-.03.04-.03h.03c.13,0,.27-.02.4-.06.02,0,.04,0,.05,0h.06s.05-.03.02-.04c-.03-.03-.05-.05-.07-.08,0-.02-.03-.03-.04-.02h0s-.09.04-.12,0c0,0,0,0,0-.02-.04-.05-.06-.12-.08-.18-.02-.08-.04-.15-.1-.21-.04-.04-.11-.06-.17-.05-.04,0-.09.04-.12.09l-.05.08s-.03.04-.03.06v.04s0,.11-.04.13l-.08.06s-.03.04-.03.05,0,.04,0,.05v.04h0s.02.04.03.04h0s0,.02,0,.03c0,.02,0,.04,0,.06,0,0-.02,0-.02.02-.05.04-.11.07-.17.1h-.03s-.04-.03-.04-.05v-.12s.02-.09.05-.12c.04-.05.06-.12.06-.2,0-.04,0-.08.04-.12.02-.03.04-.05.05-.08,0-.02.02-.04.04-.06.09-.11.18-.22.25-.34.04-.08.13-.17.21-.06.02.03.04.05.07.07.07.05.15.1.23.14s.1-.04.11-.11h0s.02-.06.04-.09c.05-.08.11-.15.18-.22.04-.04.09-.07.13-.1.03-.02.04-.03.03-.04-.02,0,.02-.04.03-.07,0-.03.02-.05.02-.07.02-.03.03-.05.04-.09h0s0-.03-.02-.03c-.03-.02-.06-.03-.09-.03h0s-.09,0-.13.03c-.02,0-.04.03-.04.04s-.02.04-.04.05c-.04.03-.08.04-.12,0-.02-.02,0-.04,0-.05s.02-.03.03-.04v-.02h0s-.03,0-.04,0c-.03,0-.05.02-.07.03-.03.02-.06,0-.08-.03v-.07s.02-.04.04-.04c.02,0,.04-.02.04-.04v-.02s0-.02,0-.02c0,0,.02-.02.03-.02.1-.06.2-.13.28-.2.02-.02.04-.02.05,0h0s.09.04.13.03c.02,0,.03,0,.04-.03h0s-.02-.03-.03-.03l-.05-.02s-.04,0-.04-.02c-.02,0-.03-.04-.02-.05.02-.1.13-.1.21-.09h0s.08,0,.12-.02c.05-.02.1-.06.14-.08.05-.03.11-.05.16-.07h.04s.03,0,.03-.02c.04-.05.08-.1.12-.14.06-.04.13-.06.21-.08h.04ZM11.74,11.2s-.06,0-.09.03c0,0-.02.02,0,.02.02.02.04.03.06.04,0,0,.03.03.03.04s.02.04.03.05c.02.04.03.07.04.11.02.06.04.12.04.19,0,.05,0,.11,0,.16v.29c0,.06,0,.11.04.11s.05,0,.07-.02c.04-.03.07-.08.08-.13.03-.17.03-.35,0-.51,0-.12-.07-.24-.17-.32-.04-.04-.08-.05-.12-.05,0,0-.02,0-.02,0ZM15.25,11.35h4.59c-.02.73-.03,1.42-.04,2h-4.55v-1.65s0-.35,0-.35ZM15.25,13.6h4.54c-.03.88-.2,1.75-.49,2.58-.35.98-.82,1.91-1.38,2.77-.59.89-1.31,1.68-2.14,2.37-.32.27-.67.52-1.02.75-.56.34-1.14.64-1.74.89-.2.09-.37.17-.53.22-.17.06-.32.11-.42.14v-6.57c.1,0,.19,0,.28-.02,0,0,.02.05.03.09.04.07.12.12.2.15.1.02.2-.02.27-.1.1.08.23.11.35.06.09-.03.15-.11.16-.2,0-.06,0-.12-.03-.19l-.04-.06c.23-.1.45-.22.66-.36h.02c.33-.09,1.66-.57,2.47-.58.51,0,1,.11,1.45.35.23.13.43.3.6.5,0,0,0,.03.04.03,0,0,.03,0,.03-.02.06-.14.08-.3.07-.46-.02-.25-.27-.43-.34-.51,0,0,0-.02.02-.04.03-.03.06-.05.09-.08.14-.12.32-.18.5-.19.03,0,.02-.04,0-.07-.05-.22-.37-.36-.7-.31-.22.04-.42.18-.54.37,0,0-.04.03-.05,0-.11-.04-.21-.07-.33-.1-.04,0-.02-.04-.02-.04.06-.12.16-.22.27-.3.12-.1.27-.17.43-.2.02,0,.02-.03.02-.04-.06-.13-.19-.23-.34-.27-.24-.08-.5-.03-.69.12-.19.16-.33.36-.39.59,0,.02-.02.04-.04.03-.09-.02-.3,0-.33-.02,0,0,0-.03,0-.04.04-.12.11-.24.2-.34.08-.12.2-.2.32-.26.03,0,.04-.04.03-.06,0,0,0-.02-.02-.02-.37-.2-.82-.1-1.08.23-.12.19-.21.4-.27.62,0,0-.02.04-.04.04l-.45.1-.07.02-.02.02c.27-.44.43-.95.44-1.46v-.15s0,0,0,0ZM4.21,13.68h4.6v.08c0,.69.27,1.36.74,1.86h-5.05c-.18-.63-.27-1.29-.3-1.94h0ZM4.58,15.84h5.2s.06.06.1.09c.54.46,1.21.74,1.92.8v1.07h-6.4c-.27-.52-.51-1.06-.71-1.62-.04-.12-.08-.22-.11-.34h0ZM13.96,16.1h0s0,0,.02,0h0ZM15.5,16.27c-.16,0-.32.04-.45.13-.15.08-.27.21-.35.36-.09.22-.13.45-.15.68,0,.02-.02.03-.04.03-.1.02-.2.04-.3.08,0,0-.02,0-.02-.02-.04-.22.02-.45.13-.65.04-.09.12-.17.2-.23.02,0,.02-.03,0-.04,0,0-.02-.02-.03-.02-.2-.04-.4,0-.58.1-.22.12-.37.35-.4.59-.02.18,0,.35.04.52,0,0,0,.03-.02.03-.07.04-.25.13-.31.16h-.02c-.04-.13-.12-.25-.24-.32-.12-.05-.27-.04-.4.02-.08.04-.15.12-.2.2-.06.14-.02.31.12.4,0,0,.02.02,0,.02-.08.04-.08.05-.14.14-.06.13-.04.28.04.4.12.19.38.24.58.11.02,0,.04-.03.04-.04,0,0,.02,0,.02.02.04.05.08.1.12.13.12.07.27.07.4,0,.13-.07.2-.22.19-.37,0-.09-.04-.17-.1-.23,0-.02,0-.02.03-.04.53-.31,1.13-.51,1.74-.59.32-.05.64-.04.96.02.2.04.4.14.56.27.13.11.25.22.36.35.04,0,.07,0,.11-.02.06-.14.07-.31,0-.46-.07-.2-.19-.37-.34-.52v-.02s0-.04.04-.07c.14-.13.31-.22.5-.27.03,0,.04-.02.02-.04-.14-.26-.44-.36-.72-.27h0c-.17.07-.32.2-.4.37,0,0-.02.04-.04.04-.08,0-.21-.03-.29-.04-.04,0-.02-.04-.02-.04.04-.11.09-.2.17-.28.11-.12.24-.22.39-.28,0,0,.02,0,.02-.02h0c-.1-.12-.25-.2-.42-.2-.2,0-.4.06-.55.21-.17.18-.27.41-.3.66,0,.02-.02.03-.04.03-.08,0-.16.02-.25.02-.02,0,0-.02,0-.04,0-.12.04-.25.09-.36.12-.21.28-.39.49-.51.04-.02.04-.07.03-.07-.1-.04-.2-.06-.31-.06,0,0,.02.05.02.05ZM5.54,18.05h6.27v1.94h-4.93c-.29-.33-.56-.68-.8-1.05-.2-.29-.37-.59-.54-.9h0ZM14.47,19.1c-.09,0-.17.02-.24.06-.2.11-.35.28-.43.5-.04.17-.04.35,0,.51,0,0,0,.02,0,.03-.07.03-.12.06-.19.09h-.03c-.12-.21-.09-.48.08-.66.02,0,.03-.03,0-.04-.18-.03-.35.04-.47.17-.13.16-.18.38-.11.59.02.08.04.16.09.23,0,0,.03.02,0,.03l-.13.1h-.02c-.05-.1-.15-.18-.26-.21-.1-.03-.2,0-.28.08-.12.12-.12.33,0,.45.04.04.08.06.13.08,0,0,.02,0,0,.02-.07.04-.13.12-.17.19-.05.12-.02.27.08.36.07.06.17.09.26.08.14-.04.26-.14.32-.27,0,0,.02-.02.03,0,.05.08.14.14.23.18.1.04.21,0,.28-.06.11-.08.15-.23.1-.35-.04-.08-.11-.14-.18-.2,0,0,0-.03.02-.05.36-.29.79-.48,1.24-.55.31-.04.63,0,.9.15.11.06.21.14.3.24,0,0,.04.02.05,0,.14-.12.15-.35.03-.49-.05-.06-.12-.11-.19-.15h0c.05-.15.15-.27.27-.35.08-.05.17-.1.27-.12.02,0,.02-.02,0-.04-.12-.26-.57-.27-.77-.13-.13.09-.23.21-.31.35,0,0,0,.04-.02.03l-.19-.05v-.03c.12-.25.35-.43.62-.51,0,0,0-.02,0-.03-.1-.24-.59-.22-.82-.06-.22.15-.38.37-.43.63v.04c-.06.03-.13.04-.2.05,0,0-.02,0-.02-.02-.02-.12,0-.24.06-.35.08-.13.18-.26.28-.36.02-.02.02-.04,0-.05h0c-.06-.04-.13-.06-.21-.06h0ZM11.8,20.24v3.03c-.09-.03-.19-.06-.3-.11-.16-.05-.33-.13-.53-.22-.6-.25-1.18-.55-1.74-.89-.35-.23-.69-.48-1.02-.75-.4-.33-.77-.69-1.13-1.07h4.72Z"/>
</svg>