<?xml version="1.0" encoding="UTF-8"?>
<svg id="Layer_1" xmlns="http://www.w3.org/2000/svg" version="1.1" viewBox="0 0 500 500">
  <!-- Generator: Adobe Illustrator 29.5.0, SVG Export Plug-In . SVG Version: 2.1.0 Build 137)  -->
  <defs>
    <style>
      .st0 {
        fill: #0101ca;
        fill-rule: evenodd;
      }
    </style>
  </defs>
  <path class="st0" d="M36.99,416.57c0,20.08,16.26,36.34,36.34,36.34h118.11c20.08,0,36.34-16.27,36.34-36.34v-145.37c0-20.08-16.26-36.34-36.34-36.34h-58.33c-10.09,0-18.17-8.18-18.17-18.17,0-3.27.82-5.54.82-5.54,13.26-43.98,46.79-79.23,89.76-94.85l.18-.18c13-5.54,22.08-18.44,22.08-33.44,0-20.08-16.26-36.34-36.34-36.34-4.91,0-9.54,1-13.8,2.72l-1.64.64C94.68,81.4,36.99,160.45,36.99,253.03v163.54ZM273.21,416.57c0,20.08,16.26,36.34,36.34,36.34h118.11c20.08,0,36.34-16.27,36.34-36.34v-145.37c0-20.08-16.26-36.34-36.34-36.34h-58.33c-10.09,0-18.17-8.18-18.17-18.17,0-3.36.81-5.54.81-5.54,13.27-43.98,46.79-79.23,89.77-94.85l.18-.18c12.99-5.54,22.08-18.44,22.08-33.44,0-20.08-16.26-36.34-36.34-36.34-4.91,0-9.54,1-13.8,2.72l-1.64.64c-81.32,31.71-139,110.75-139,203.33v163.54Z"/>
</svg>